<?xml version="1.0" encoding="UTF-8" standalone="no"?>
<svg width="301px" height="605px" viewBox="0 0 301 605" version="1.1" xmlns="http://www.w3.org/2000/svg" xmlns:xlink="http://www.w3.org/1999/xlink">
    <!-- Generator: Sketch 3.8.3 (29802) - http://www.bohemiancoding.com/sketch -->
    <title>Combined Shape</title>
    <desc>Created with Sketch.</desc>
    <defs>
        <linearGradient x1="0%" y1="0%" x2="100%" y2="100%" id="linearGradient-1">
            <stop stop-color="#BABABA" stop-opacity="0.4" offset="0%"></stop>
            <stop stop-color="#BABABA" stop-opacity="0" offset="100%"></stop>
        </linearGradient>
    </defs>
    <g id="Page-1" stroke="none" stroke-width="1" fill="none" fill-rule="evenodd">
        <g id="iPhone-6" fill="url(#linearGradient-1)">
            <path d="M8,16 C12.418278,16 16,12.418278 16,8 C16,3.581722 12.418278,0 8,0 C3.581722,0 0,3.581722 0,8 C0,12.418278 3.581722,16 8,16 Z M8,320 C12.418278,320 16,316.418278 16,312 C16,307.581722 12.418278,304 8,304 C3.581722,304 0,307.581722 0,312 C0,316.418278 3.581722,320 8,320 Z M8,168 C12.418278,168 16,164.418278 16,160 C16,155.581722 12.418278,152 8,152 C3.581722,152 0,155.581722 0,160 C0,164.418278 3.581722,168 8,168 Z M8,472 C12.418278,472 16,468.418278 16,464 C16,459.581722 12.418278,456 8,456 C3.581722,456 0,459.581722 0,464 C0,468.418278 3.581722,472 8,472 Z M8,92 C12.418278,92 16,88.418278 16,84 C16,79.581722 12.418278,76 8,76 C3.581722,76 0,79.581722 0,84 C0,88.418278 3.581722,92 8,92 Z M8,396 C12.418278,396 16,392.418278 16,388 C16,383.581722 12.418278,380 8,380 C3.581722,380 0,383.581722 0,388 C0,392.418278 3.581722,396 8,396 Z M8,244 C12.418278,244 16,240.418278 16,236 C16,231.581722 12.418278,228 8,228 C3.581722,228 0,231.581722 0,236 C0,240.418278 3.581722,244 8,244 Z M8,548 C12.418278,548 16,544.418278 16,540 C16,535.581722 12.418278,532 8,532 C3.581722,532 0,535.581722 0,540 C0,544.418278 3.581722,548 8,548 Z M8,54 C12.418278,54 16,50.418278 16,46 C16,41.581722 12.418278,38 8,38 C3.581722,38 0,41.581722 0,46 C0,50.418278 3.581722,54 8,54 Z M8,358 C12.418278,358 16,354.418278 16,350 C16,345.581722 12.418278,342 8,342 C3.581722,342 0,345.581722 0,350 C0,354.418278 3.581722,358 8,358 Z M8,206 C12.418278,206 16,202.418278 16,198 C16,193.581722 12.418278,190 8,190 C3.581722,190 0,193.581722 0,198 C0,202.418278 3.581722,206 8,206 Z M8,510 C12.418278,510 16,506.418278 16,502 C16,497.581722 12.418278,494 8,494 C3.581722,494 0,497.581722 0,502 C0,506.418278 3.581722,510 8,510 Z M8,130 C12.418278,130 16,126.418278 16,122 C16,117.581722 12.418278,114 8,114 C3.581722,114 0,117.581722 0,122 C0,126.418278 3.581722,130 8,130 Z M8,434 C12.418278,434 16,430.418278 16,426 C16,421.581722 12.418278,418 8,418 C3.581722,418 0,421.581722 0,426 C0,430.418278 3.581722,434 8,434 Z M8,282 C12.418278,282 16,278.418278 16,274 C16,269.581722 12.418278,266 8,266 C3.581722,266 0,269.581722 0,274 C0,278.418278 3.581722,282 8,282 Z M8,586 C12.418278,586 16,582.418278 16,578 C16,573.581722 12.418278,570 8,570 C3.581722,570 0,573.581722 0,578 C0,582.418278 3.581722,586 8,586 Z M8,35 C12.418278,35 16,31.418278 16,27 C16,22.581722 12.418278,19 8,19 C3.581722,19 0,22.581722 0,27 C0,31.418278 3.581722,35 8,35 Z M8,339 C12.418278,339 16,335.418278 16,331 C16,326.581722 12.418278,323 8,323 C3.581722,323 0,326.581722 0,331 C0,335.418278 3.581722,339 8,339 Z M8,187 C12.418278,187 16,183.418278 16,179 C16,174.581722 12.418278,171 8,171 C3.581722,171 0,174.581722 0,179 C0,183.418278 3.581722,187 8,187 Z M8,491 C12.418278,491 16,487.418278 16,483 C16,478.581722 12.418278,475 8,475 C3.581722,475 0,478.581722 0,483 C0,487.418278 3.581722,491 8,491 Z M8,111 C12.418278,111 16,107.418278 16,103 C16,98.581722 12.418278,95 8,95 C3.581722,95 0,98.581722 0,103 C0,107.418278 3.581722,111 8,111 Z M8,415 C12.418278,415 16,411.418278 16,407 C16,402.581722 12.418278,399 8,399 C3.581722,399 0,402.581722 0,407 C0,411.418278 3.581722,415 8,415 Z M8,263 C12.418278,263 16,259.418278 16,255 C16,250.581722 12.418278,247 8,247 C3.581722,247 0,250.581722 0,255 C0,259.418278 3.581722,263 8,263 Z M8,567 C12.418278,567 16,563.418278 16,559 C16,554.581722 12.418278,551 8,551 C3.581722,551 0,554.581722 0,559 C0,563.418278 3.581722,567 8,567 Z M8,73 C12.418278,73 16,69.418278 16,65 C16,60.581722 12.418278,57 8,57 C3.581722,57 0,60.581722 0,65 C0,69.418278 3.581722,73 8,73 Z M8,377 C12.418278,377 16,373.418278 16,369 C16,364.581722 12.418278,361 8,361 C3.581722,361 0,364.581722 0,369 C0,373.418278 3.581722,377 8,377 Z M8,225 C12.418278,225 16,221.418278 16,217 C16,212.581722 12.418278,209 8,209 C3.581722,209 0,212.581722 0,217 C0,221.418278 3.581722,225 8,225 Z M8,529 C12.418278,529 16,525.418278 16,521 C16,516.581722 12.418278,513 8,513 C3.581722,513 0,516.581722 0,521 C0,525.418278 3.581722,529 8,529 Z M8,149 C12.418278,149 16,145.418278 16,141 C16,136.581722 12.418278,133 8,133 C3.581722,133 0,136.581722 0,141 C0,145.418278 3.581722,149 8,149 Z M8,453 C12.418278,453 16,449.418278 16,445 C16,440.581722 12.418278,437 8,437 C3.581722,437 0,440.581722 0,445 C0,449.418278 3.581722,453 8,453 Z M8,301 C12.418278,301 16,297.418278 16,293 C16,288.581722 12.418278,285 8,285 C3.581722,285 0,288.581722 0,293 C0,297.418278 3.581722,301 8,301 Z M8,605 C12.418278,605 16,601.418278 16,597 C16,592.581722 12.418278,589 8,589 C3.581722,589 0,592.581722 0,597 C0,601.418278 3.581722,605 8,605 Z M122,16 C126.418278,16 130,12.418278 130,8 C130,3.581722 126.418278,0 122,0 C117.581722,0 114,3.581722 114,8 C114,12.418278 117.581722,16 122,16 Z M122,320 C126.418278,320 130,316.418278 130,312 C130,307.581722 126.418278,304 122,304 C117.581722,304 114,307.581722 114,312 C114,316.418278 117.581722,320 122,320 Z M122,168 C126.418278,168 130,164.418278 130,160 C130,155.581722 126.418278,152 122,152 C117.581722,152 114,155.581722 114,160 C114,164.418278 117.581722,168 122,168 Z M122,472 C126.418278,472 130,468.418278 130,464 C130,459.581722 126.418278,456 122,456 C117.581722,456 114,459.581722 114,464 C114,468.418278 117.581722,472 122,472 Z M122,92 C126.418278,92 130,88.418278 130,84 C130,79.581722 126.418278,76 122,76 C117.581722,76 114,79.581722 114,84 C114,88.418278 117.581722,92 122,92 Z M122,396 C126.418278,396 130,392.418278 130,388 C130,383.581722 126.418278,380 122,380 C117.581722,380 114,383.581722 114,388 C114,392.418278 117.581722,396 122,396 Z M122,244 C126.418278,244 130,240.418278 130,236 C130,231.581722 126.418278,228 122,228 C117.581722,228 114,231.581722 114,236 C114,240.418278 117.581722,244 122,244 Z M122,548 C126.418278,548 130,544.418278 130,540 C130,535.581722 126.418278,532 122,532 C117.581722,532 114,535.581722 114,540 C114,544.418278 117.581722,548 122,548 Z M122,54 C126.418278,54 130,50.418278 130,46 C130,41.581722 126.418278,38 122,38 C117.581722,38 114,41.581722 114,46 C114,50.418278 117.581722,54 122,54 Z M122,358 C126.418278,358 130,354.418278 130,350 C130,345.581722 126.418278,342 122,342 C117.581722,342 114,345.581722 114,350 C114,354.418278 117.581722,358 122,358 Z M122,206 C126.418278,206 130,202.418278 130,198 C130,193.581722 126.418278,190 122,190 C117.581722,190 114,193.581722 114,198 C114,202.418278 117.581722,206 122,206 Z M122,510 C126.418278,510 130,506.418278 130,502 C130,497.581722 126.418278,494 122,494 C117.581722,494 114,497.581722 114,502 C114,506.418278 117.581722,510 122,510 Z M122,130 C126.418278,130 130,126.418278 130,122 C130,117.581722 126.418278,114 122,114 C117.581722,114 114,117.581722 114,122 C114,126.418278 117.581722,130 122,130 Z M122,434 C126.418278,434 130,430.418278 130,426 C130,421.581722 126.418278,418 122,418 C117.581722,418 114,421.581722 114,426 C114,430.418278 117.581722,434 122,434 Z M122,282 C126.418278,282 130,278.418278 130,274 C130,269.581722 126.418278,266 122,266 C117.581722,266 114,269.581722 114,274 C114,278.418278 117.581722,282 122,282 Z M122,586 C126.418278,586 130,582.418278 130,578 C130,573.581722 126.418278,570 122,570 C117.581722,570 114,573.581722 114,578 C114,582.418278 117.581722,586 122,586 Z M122,35 C126.418278,35 130,31.418278 130,27 C130,22.581722 126.418278,19 122,19 C117.581722,19 114,22.581722 114,27 C114,31.418278 117.581722,35 122,35 Z M122,339 C126.418278,339 130,335.418278 130,331 C130,326.581722 126.418278,323 122,323 C117.581722,323 114,326.581722 114,331 C114,335.418278 117.581722,339 122,339 Z M122,187 C126.418278,187 130,183.418278 130,179 C130,174.581722 126.418278,171 122,171 C117.581722,171 114,174.581722 114,179 C114,183.418278 117.581722,187 122,187 Z M122,491 C126.418278,491 130,487.418278 130,483 C130,478.581722 126.418278,475 122,475 C117.581722,475 114,478.581722 114,483 C114,487.418278 117.581722,491 122,491 Z M122,111 C126.418278,111 130,107.418278 130,103 C130,98.581722 126.418278,95 122,95 C117.581722,95 114,98.581722 114,103 C114,107.418278 117.581722,111 122,111 Z M122,415 C126.418278,415 130,411.418278 130,407 C130,402.581722 126.418278,399 122,399 C117.581722,399 114,402.581722 114,407 C114,411.418278 117.581722,415 122,415 Z M122,263 C126.418278,263 130,259.418278 130,255 C130,250.581722 126.418278,247 122,247 C117.581722,247 114,250.581722 114,255 C114,259.418278 117.581722,263 122,263 Z M122,567 C126.418278,567 130,563.418278 130,559 C130,554.581722 126.418278,551 122,551 C117.581722,551 114,554.581722 114,559 C114,563.418278 117.581722,567 122,567 Z M122,73 C126.418278,73 130,69.418278 130,65 C130,60.581722 126.418278,57 122,57 C117.581722,57 114,60.581722 114,65 C114,69.418278 117.581722,73 122,73 Z M122,377 C126.418278,377 130,373.418278 130,369 C130,364.581722 126.418278,361 122,361 C117.581722,361 114,364.581722 114,369 C114,373.418278 117.581722,377 122,377 Z M122,225 C126.418278,225 130,221.418278 130,217 C130,212.581722 126.418278,209 122,209 C117.581722,209 114,212.581722 114,217 C114,221.418278 117.581722,225 122,225 Z M122,529 C126.418278,529 130,525.418278 130,521 C130,516.581722 126.418278,513 122,513 C117.581722,513 114,516.581722 114,521 C114,525.418278 117.581722,529 122,529 Z M122,149 C126.418278,149 130,145.418278 130,141 C130,136.581722 126.418278,133 122,133 C117.581722,133 114,136.581722 114,141 C114,145.418278 117.581722,149 122,149 Z M122,453 C126.418278,453 130,449.418278 130,445 C130,440.581722 126.418278,437 122,437 C117.581722,437 114,440.581722 114,445 C114,449.418278 117.581722,453 122,453 Z M122,301 C126.418278,301 130,297.418278 130,293 C130,288.581722 126.418278,285 122,285 C117.581722,285 114,288.581722 114,293 C114,297.418278 117.581722,301 122,301 Z M122,605 C126.418278,605 130,601.418278 130,597 C130,592.581722 126.418278,589 122,589 C117.581722,589 114,592.581722 114,597 C114,601.418278 117.581722,605 122,605 Z M27,16 C31.418278,16 35,12.418278 35,8 C35,3.581722 31.418278,0 27,0 C22.581722,0 19,3.581722 19,8 C19,12.418278 22.581722,16 27,16 Z M27,320 C31.418278,320 35,316.418278 35,312 C35,307.581722 31.418278,304 27,304 C22.581722,304 19,307.581722 19,312 C19,316.418278 22.581722,320 27,320 Z M27,168 C31.418278,168 35,164.418278 35,160 C35,155.581722 31.418278,152 27,152 C22.581722,152 19,155.581722 19,160 C19,164.418278 22.581722,168 27,168 Z M27,472 C31.418278,472 35,468.418278 35,464 C35,459.581722 31.418278,456 27,456 C22.581722,456 19,459.581722 19,464 C19,468.418278 22.581722,472 27,472 Z M27,92 C31.418278,92 35,88.418278 35,84 C35,79.581722 31.418278,76 27,76 C22.581722,76 19,79.581722 19,84 C19,88.418278 22.581722,92 27,92 Z M27,396 C31.418278,396 35,392.418278 35,388 C35,383.581722 31.418278,380 27,380 C22.581722,380 19,383.581722 19,388 C19,392.418278 22.581722,396 27,396 Z M27,244 C31.418278,244 35,240.418278 35,236 C35,231.581722 31.418278,228 27,228 C22.581722,228 19,231.581722 19,236 C19,240.418278 22.581722,244 27,244 Z M27,548 C31.418278,548 35,544.418278 35,540 C35,535.581722 31.418278,532 27,532 C22.581722,532 19,535.581722 19,540 C19,544.418278 22.581722,548 27,548 Z M27,54 C31.418278,54 35,50.418278 35,46 C35,41.581722 31.418278,38 27,38 C22.581722,38 19,41.581722 19,46 C19,50.418278 22.581722,54 27,54 Z M27,358 C31.418278,358 35,354.418278 35,350 C35,345.581722 31.418278,342 27,342 C22.581722,342 19,345.581722 19,350 C19,354.418278 22.581722,358 27,358 Z M27,206 C31.418278,206 35,202.418278 35,198 C35,193.581722 31.418278,190 27,190 C22.581722,190 19,193.581722 19,198 C19,202.418278 22.581722,206 27,206 Z M27,510 C31.418278,510 35,506.418278 35,502 C35,497.581722 31.418278,494 27,494 C22.581722,494 19,497.581722 19,502 C19,506.418278 22.581722,510 27,510 Z M27,130 C31.418278,130 35,126.418278 35,122 C35,117.581722 31.418278,114 27,114 C22.581722,114 19,117.581722 19,122 C19,126.418278 22.581722,130 27,130 Z M27,434 C31.418278,434 35,430.418278 35,426 C35,421.581722 31.418278,418 27,418 C22.581722,418 19,421.581722 19,426 C19,430.418278 22.581722,434 27,434 Z M27,282 C31.418278,282 35,278.418278 35,274 C35,269.581722 31.418278,266 27,266 C22.581722,266 19,269.581722 19,274 C19,278.418278 22.581722,282 27,282 Z M27,586 C31.418278,586 35,582.418278 35,578 C35,573.581722 31.418278,570 27,570 C22.581722,570 19,573.581722 19,578 C19,582.418278 22.581722,586 27,586 Z M27,35 C31.418278,35 35,31.418278 35,27 C35,22.581722 31.418278,19 27,19 C22.581722,19 19,22.581722 19,27 C19,31.418278 22.581722,35 27,35 Z M27,339 C31.418278,339 35,335.418278 35,331 C35,326.581722 31.418278,323 27,323 C22.581722,323 19,326.581722 19,331 C19,335.418278 22.581722,339 27,339 Z M27,187 C31.418278,187 35,183.418278 35,179 C35,174.581722 31.418278,171 27,171 C22.581722,171 19,174.581722 19,179 C19,183.418278 22.581722,187 27,187 Z M27,491 C31.418278,491 35,487.418278 35,483 C35,478.581722 31.418278,475 27,475 C22.581722,475 19,478.581722 19,483 C19,487.418278 22.581722,491 27,491 Z M27,111 C31.418278,111 35,107.418278 35,103 C35,98.581722 31.418278,95 27,95 C22.581722,95 19,98.581722 19,103 C19,107.418278 22.581722,111 27,111 Z M27,415 C31.418278,415 35,411.418278 35,407 C35,402.581722 31.418278,399 27,399 C22.581722,399 19,402.581722 19,407 C19,411.418278 22.581722,415 27,415 Z M27,263 C31.418278,263 35,259.418278 35,255 C35,250.581722 31.418278,247 27,247 C22.581722,247 19,250.581722 19,255 C19,259.418278 22.581722,263 27,263 Z M27,567 C31.418278,567 35,563.418278 35,559 C35,554.581722 31.418278,551 27,551 C22.581722,551 19,554.581722 19,559 C19,563.418278 22.581722,567 27,567 Z M27,73 C31.418278,73 35,69.418278 35,65 C35,60.581722 31.418278,57 27,57 C22.581722,57 19,60.581722 19,65 C19,69.418278 22.581722,73 27,73 Z M27,377 C31.418278,377 35,373.418278 35,369 C35,364.581722 31.418278,361 27,361 C22.581722,361 19,364.581722 19,369 C19,373.418278 22.581722,377 27,377 Z M27,225 C31.418278,225 35,221.418278 35,217 C35,212.581722 31.418278,209 27,209 C22.581722,209 19,212.581722 19,217 C19,221.418278 22.581722,225 27,225 Z M27,529 C31.418278,529 35,525.418278 35,521 C35,516.581722 31.418278,513 27,513 C22.581722,513 19,516.581722 19,521 C19,525.418278 22.581722,529 27,529 Z M27,149 C31.418278,149 35,145.418278 35,141 C35,136.581722 31.418278,133 27,133 C22.581722,133 19,136.581722 19,141 C19,145.418278 22.581722,149 27,149 Z M27,453 C31.418278,453 35,449.418278 35,445 C35,440.581722 31.418278,437 27,437 C22.581722,437 19,440.581722 19,445 C19,449.418278 22.581722,453 27,453 Z M27,301 C31.418278,301 35,297.418278 35,293 C35,288.581722 31.418278,285 27,285 C22.581722,285 19,288.581722 19,293 C19,297.418278 22.581722,301 27,301 Z M27,605 C31.418278,605 35,601.418278 35,597 C35,592.581722 31.418278,589 27,589 C22.581722,589 19,592.581722 19,597 C19,601.418278 22.581722,605 27,605 Z M141,16 C145.418278,16 149,12.418278 149,8 C149,3.581722 145.418278,0 141,0 C136.581722,0 133,3.581722 133,8 C133,12.418278 136.581722,16 141,16 Z M141,320 C145.418278,320 149,316.418278 149,312 C149,307.581722 145.418278,304 141,304 C136.581722,304 133,307.581722 133,312 C133,316.418278 136.581722,320 141,320 Z M141,168 C145.418278,168 149,164.418278 149,160 C149,155.581722 145.418278,152 141,152 C136.581722,152 133,155.581722 133,160 C133,164.418278 136.581722,168 141,168 Z M141,472 C145.418278,472 149,468.418278 149,464 C149,459.581722 145.418278,456 141,456 C136.581722,456 133,459.581722 133,464 C133,468.418278 136.581722,472 141,472 Z M141,92 C145.418278,92 149,88.418278 149,84 C149,79.581722 145.418278,76 141,76 C136.581722,76 133,79.581722 133,84 C133,88.418278 136.581722,92 141,92 Z M141,396 C145.418278,396 149,392.418278 149,388 C149,383.581722 145.418278,380 141,380 C136.581722,380 133,383.581722 133,388 C133,392.418278 136.581722,396 141,396 Z M141,244 C145.418278,244 149,240.418278 149,236 C149,231.581722 145.418278,228 141,228 C136.581722,228 133,231.581722 133,236 C133,240.418278 136.581722,244 141,244 Z M141,548 C145.418278,548 149,544.418278 149,540 C149,535.581722 145.418278,532 141,532 C136.581722,532 133,535.581722 133,540 C133,544.418278 136.581722,548 141,548 Z M141,54 C145.418278,54 149,50.418278 149,46 C149,41.581722 145.418278,38 141,38 C136.581722,38 133,41.581722 133,46 C133,50.418278 136.581722,54 141,54 Z M141,358 C145.418278,358 149,354.418278 149,350 C149,345.581722 145.418278,342 141,342 C136.581722,342 133,345.581722 133,350 C133,354.418278 136.581722,358 141,358 Z M141,206 C145.418278,206 149,202.418278 149,198 C149,193.581722 145.418278,190 141,190 C136.581722,190 133,193.581722 133,198 C133,202.418278 136.581722,206 141,206 Z M141,510 C145.418278,510 149,506.418278 149,502 C149,497.581722 145.418278,494 141,494 C136.581722,494 133,497.581722 133,502 C133,506.418278 136.581722,510 141,510 Z M141,130 C145.418278,130 149,126.418278 149,122 C149,117.581722 145.418278,114 141,114 C136.581722,114 133,117.581722 133,122 C133,126.418278 136.581722,130 141,130 Z M141,434 C145.418278,434 149,430.418278 149,426 C149,421.581722 145.418278,418 141,418 C136.581722,418 133,421.581722 133,426 C133,430.418278 136.581722,434 141,434 Z M141,282 C145.418278,282 149,278.418278 149,274 C149,269.581722 145.418278,266 141,266 C136.581722,266 133,269.581722 133,274 C133,278.418278 136.581722,282 141,282 Z M141,586 C145.418278,586 149,582.418278 149,578 C149,573.581722 145.418278,570 141,570 C136.581722,570 133,573.581722 133,578 C133,582.418278 136.581722,586 141,586 Z M141,35 C145.418278,35 149,31.418278 149,27 C149,22.581722 145.418278,19 141,19 C136.581722,19 133,22.581722 133,27 C133,31.418278 136.581722,35 141,35 Z M141,339 C145.418278,339 149,335.418278 149,331 C149,326.581722 145.418278,323 141,323 C136.581722,323 133,326.581722 133,331 C133,335.418278 136.581722,339 141,339 Z M141,187 C145.418278,187 149,183.418278 149,179 C149,174.581722 145.418278,171 141,171 C136.581722,171 133,174.581722 133,179 C133,183.418278 136.581722,187 141,187 Z M141,491 C145.418278,491 149,487.418278 149,483 C149,478.581722 145.418278,475 141,475 C136.581722,475 133,478.581722 133,483 C133,487.418278 136.581722,491 141,491 Z M141,111 C145.418278,111 149,107.418278 149,103 C149,98.581722 145.418278,95 141,95 C136.581722,95 133,98.581722 133,103 C133,107.418278 136.581722,111 141,111 Z M141,415 C145.418278,415 149,411.418278 149,407 C149,402.581722 145.418278,399 141,399 C136.581722,399 133,402.581722 133,407 C133,411.418278 136.581722,415 141,415 Z M141,263 C145.418278,263 149,259.418278 149,255 C149,250.581722 145.418278,247 141,247 C136.581722,247 133,250.581722 133,255 C133,259.418278 136.581722,263 141,263 Z M141,567 C145.418278,567 149,563.418278 149,559 C149,554.581722 145.418278,551 141,551 C136.581722,551 133,554.581722 133,559 C133,563.418278 136.581722,567 141,567 Z M141,73 C145.418278,73 149,69.418278 149,65 C149,60.581722 145.418278,57 141,57 C136.581722,57 133,60.581722 133,65 C133,69.418278 136.581722,73 141,73 Z M141,377 C145.418278,377 149,373.418278 149,369 C149,364.581722 145.418278,361 141,361 C136.581722,361 133,364.581722 133,369 C133,373.418278 136.581722,377 141,377 Z M141,225 C145.418278,225 149,221.418278 149,217 C149,212.581722 145.418278,209 141,209 C136.581722,209 133,212.581722 133,217 C133,221.418278 136.581722,225 141,225 Z M141,529 C145.418278,529 149,525.418278 149,521 C149,516.581722 145.418278,513 141,513 C136.581722,513 133,516.581722 133,521 C133,525.418278 136.581722,529 141,529 Z M141,149 C145.418278,149 149,145.418278 149,141 C149,136.581722 145.418278,133 141,133 C136.581722,133 133,136.581722 133,141 C133,145.418278 136.581722,149 141,149 Z M141,453 C145.418278,453 149,449.418278 149,445 C149,440.581722 145.418278,437 141,437 C136.581722,437 133,440.581722 133,445 C133,449.418278 136.581722,453 141,453 Z M141,301 C145.418278,301 149,297.418278 149,293 C149,288.581722 145.418278,285 141,285 C136.581722,285 133,288.581722 133,293 C133,297.418278 136.581722,301 141,301 Z M141,605 C145.418278,605 149,601.418278 149,597 C149,592.581722 145.418278,589 141,589 C136.581722,589 133,592.581722 133,597 C133,601.418278 136.581722,605 141,605 Z M46,16 C50.418278,16 54,12.418278 54,8 C54,3.581722 50.418278,0 46,0 C41.581722,0 38,3.581722 38,8 C38,12.418278 41.581722,16 46,16 Z M46,320 C50.418278,320 54,316.418278 54,312 C54,307.581722 50.418278,304 46,304 C41.581722,304 38,307.581722 38,312 C38,316.418278 41.581722,320 46,320 Z M46,168 C50.418278,168 54,164.418278 54,160 C54,155.581722 50.418278,152 46,152 C41.581722,152 38,155.581722 38,160 C38,164.418278 41.581722,168 46,168 Z M46,472 C50.418278,472 54,468.418278 54,464 C54,459.581722 50.418278,456 46,456 C41.581722,456 38,459.581722 38,464 C38,468.418278 41.581722,472 46,472 Z M46,92 C50.418278,92 54,88.418278 54,84 C54,79.581722 50.418278,76 46,76 C41.581722,76 38,79.581722 38,84 C38,88.418278 41.581722,92 46,92 Z M46,396 C50.418278,396 54,392.418278 54,388 C54,383.581722 50.418278,380 46,380 C41.581722,380 38,383.581722 38,388 C38,392.418278 41.581722,396 46,396 Z M46,244 C50.418278,244 54,240.418278 54,236 C54,231.581722 50.418278,228 46,228 C41.581722,228 38,231.581722 38,236 C38,240.418278 41.581722,244 46,244 Z M46,548 C50.418278,548 54,544.418278 54,540 C54,535.581722 50.418278,532 46,532 C41.581722,532 38,535.581722 38,540 C38,544.418278 41.581722,548 46,548 Z M46,54 C50.418278,54 54,50.418278 54,46 C54,41.581722 50.418278,38 46,38 C41.581722,38 38,41.581722 38,46 C38,50.418278 41.581722,54 46,54 Z M46,358 C50.418278,358 54,354.418278 54,350 C54,345.581722 50.418278,342 46,342 C41.581722,342 38,345.581722 38,350 C38,354.418278 41.581722,358 46,358 Z M46,206 C50.418278,206 54,202.418278 54,198 C54,193.581722 50.418278,190 46,190 C41.581722,190 38,193.581722 38,198 C38,202.418278 41.581722,206 46,206 Z M46,510 C50.418278,510 54,506.418278 54,502 C54,497.581722 50.418278,494 46,494 C41.581722,494 38,497.581722 38,502 C38,506.418278 41.581722,510 46,510 Z M46,130 C50.418278,130 54,126.418278 54,122 C54,117.581722 50.418278,114 46,114 C41.581722,114 38,117.581722 38,122 C38,126.418278 41.581722,130 46,130 Z M46,434 C50.418278,434 54,430.418278 54,426 C54,421.581722 50.418278,418 46,418 C41.581722,418 38,421.581722 38,426 C38,430.418278 41.581722,434 46,434 Z M46,282 C50.418278,282 54,278.418278 54,274 C54,269.581722 50.418278,266 46,266 C41.581722,266 38,269.581722 38,274 C38,278.418278 41.581722,282 46,282 Z M46,586 C50.418278,586 54,582.418278 54,578 C54,573.581722 50.418278,570 46,570 C41.581722,570 38,573.581722 38,578 C38,582.418278 41.581722,586 46,586 Z M46,35 C50.418278,35 54,31.418278 54,27 C54,22.581722 50.418278,19 46,19 C41.581722,19 38,22.581722 38,27 C38,31.418278 41.581722,35 46,35 Z M46,339 C50.418278,339 54,335.418278 54,331 C54,326.581722 50.418278,323 46,323 C41.581722,323 38,326.581722 38,331 C38,335.418278 41.581722,339 46,339 Z M46,187 C50.418278,187 54,183.418278 54,179 C54,174.581722 50.418278,171 46,171 C41.581722,171 38,174.581722 38,179 C38,183.418278 41.581722,187 46,187 Z M46,491 C50.418278,491 54,487.418278 54,483 C54,478.581722 50.418278,475 46,475 C41.581722,475 38,478.581722 38,483 C38,487.418278 41.581722,491 46,491 Z M46,111 C50.418278,111 54,107.418278 54,103 C54,98.581722 50.418278,95 46,95 C41.581722,95 38,98.581722 38,103 C38,107.418278 41.581722,111 46,111 Z M46,415 C50.418278,415 54,411.418278 54,407 C54,402.581722 50.418278,399 46,399 C41.581722,399 38,402.581722 38,407 C38,411.418278 41.581722,415 46,415 Z M46,263 C50.418278,263 54,259.418278 54,255 C54,250.581722 50.418278,247 46,247 C41.581722,247 38,250.581722 38,255 C38,259.418278 41.581722,263 46,263 Z M46,567 C50.418278,567 54,563.418278 54,559 C54,554.581722 50.418278,551 46,551 C41.581722,551 38,554.581722 38,559 C38,563.418278 41.581722,567 46,567 Z M46,73 C50.418278,73 54,69.418278 54,65 C54,60.581722 50.418278,57 46,57 C41.581722,57 38,60.581722 38,65 C38,69.418278 41.581722,73 46,73 Z M46,377 C50.418278,377 54,373.418278 54,369 C54,364.581722 50.418278,361 46,361 C41.581722,361 38,364.581722 38,369 C38,373.418278 41.581722,377 46,377 Z M46,225 C50.418278,225 54,221.418278 54,217 C54,212.581722 50.418278,209 46,209 C41.581722,209 38,212.581722 38,217 C38,221.418278 41.581722,225 46,225 Z M46,529 C50.418278,529 54,525.418278 54,521 C54,516.581722 50.418278,513 46,513 C41.581722,513 38,516.581722 38,521 C38,525.418278 41.581722,529 46,529 Z M46,149 C50.418278,149 54,145.418278 54,141 C54,136.581722 50.418278,133 46,133 C41.581722,133 38,136.581722 38,141 C38,145.418278 41.581722,149 46,149 Z M46,453 C50.418278,453 54,449.418278 54,445 C54,440.581722 50.418278,437 46,437 C41.581722,437 38,440.581722 38,445 C38,449.418278 41.581722,453 46,453 Z M46,301 C50.418278,301 54,297.418278 54,293 C54,288.581722 50.418278,285 46,285 C41.581722,285 38,288.581722 38,293 C38,297.418278 41.581722,301 46,301 Z M46,605 C50.418278,605 54,601.418278 54,597 C54,592.581722 50.418278,589 46,589 C41.581722,589 38,592.581722 38,597 C38,601.418278 41.581722,605 46,605 Z M160,16 C164.418278,16 168,12.418278 168,8 C168,3.581722 164.418278,0 160,0 C155.581722,0 152,3.581722 152,8 C152,12.418278 155.581722,16 160,16 Z M160,320 C164.418278,320 168,316.418278 168,312 C168,307.581722 164.418278,304 160,304 C155.581722,304 152,307.581722 152,312 C152,316.418278 155.581722,320 160,320 Z M160,168 C164.418278,168 168,164.418278 168,160 C168,155.581722 164.418278,152 160,152 C155.581722,152 152,155.581722 152,160 C152,164.418278 155.581722,168 160,168 Z M160,472 C164.418278,472 168,468.418278 168,464 C168,459.581722 164.418278,456 160,456 C155.581722,456 152,459.581722 152,464 C152,468.418278 155.581722,472 160,472 Z M160,92 C164.418278,92 168,88.418278 168,84 C168,79.581722 164.418278,76 160,76 C155.581722,76 152,79.581722 152,84 C152,88.418278 155.581722,92 160,92 Z M160,396 C164.418278,396 168,392.418278 168,388 C168,383.581722 164.418278,380 160,380 C155.581722,380 152,383.581722 152,388 C152,392.418278 155.581722,396 160,396 Z M160,244 C164.418278,244 168,240.418278 168,236 C168,231.581722 164.418278,228 160,228 C155.581722,228 152,231.581722 152,236 C152,240.418278 155.581722,244 160,244 Z M160,548 C164.418278,548 168,544.418278 168,540 C168,535.581722 164.418278,532 160,532 C155.581722,532 152,535.581722 152,540 C152,544.418278 155.581722,548 160,548 Z M160,54 C164.418278,54 168,50.418278 168,46 C168,41.581722 164.418278,38 160,38 C155.581722,38 152,41.581722 152,46 C152,50.418278 155.581722,54 160,54 Z M160,358 C164.418278,358 168,354.418278 168,350 C168,345.581722 164.418278,342 160,342 C155.581722,342 152,345.581722 152,350 C152,354.418278 155.581722,358 160,358 Z M160,206 C164.418278,206 168,202.418278 168,198 C168,193.581722 164.418278,190 160,190 C155.581722,190 152,193.581722 152,198 C152,202.418278 155.581722,206 160,206 Z M160,510 C164.418278,510 168,506.418278 168,502 C168,497.581722 164.418278,494 160,494 C155.581722,494 152,497.581722 152,502 C152,506.418278 155.581722,510 160,510 Z M160,130 C164.418278,130 168,126.418278 168,122 C168,117.581722 164.418278,114 160,114 C155.581722,114 152,117.581722 152,122 C152,126.418278 155.581722,130 160,130 Z M160,434 C164.418278,434 168,430.418278 168,426 C168,421.581722 164.418278,418 160,418 C155.581722,418 152,421.581722 152,426 C152,430.418278 155.581722,434 160,434 Z M160,282 C164.418278,282 168,278.418278 168,274 C168,269.581722 164.418278,266 160,266 C155.581722,266 152,269.581722 152,274 C152,278.418278 155.581722,282 160,282 Z M160,586 C164.418278,586 168,582.418278 168,578 C168,573.581722 164.418278,570 160,570 C155.581722,570 152,573.581722 152,578 C152,582.418278 155.581722,586 160,586 Z M160,35 C164.418278,35 168,31.418278 168,27 C168,22.581722 164.418278,19 160,19 C155.581722,19 152,22.581722 152,27 C152,31.418278 155.581722,35 160,35 Z M160,339 C164.418278,339 168,335.418278 168,331 C168,326.581722 164.418278,323 160,323 C155.581722,323 152,326.581722 152,331 C152,335.418278 155.581722,339 160,339 Z M160,187 C164.418278,187 168,183.418278 168,179 C168,174.581722 164.418278,171 160,171 C155.581722,171 152,174.581722 152,179 C152,183.418278 155.581722,187 160,187 Z M160,491 C164.418278,491 168,487.418278 168,483 C168,478.581722 164.418278,475 160,475 C155.581722,475 152,478.581722 152,483 C152,487.418278 155.581722,491 160,491 Z M160,111 C164.418278,111 168,107.418278 168,103 C168,98.581722 164.418278,95 160,95 C155.581722,95 152,98.581722 152,103 C152,107.418278 155.581722,111 160,111 Z M160,415 C164.418278,415 168,411.418278 168,407 C168,402.581722 164.418278,399 160,399 C155.581722,399 152,402.581722 152,407 C152,411.418278 155.581722,415 160,415 Z M160,263 C164.418278,263 168,259.418278 168,255 C168,250.581722 164.418278,247 160,247 C155.581722,247 152,250.581722 152,255 C152,259.418278 155.581722,263 160,263 Z M160,567 C164.418278,567 168,563.418278 168,559 C168,554.581722 164.418278,551 160,551 C155.581722,551 152,554.581722 152,559 C152,563.418278 155.581722,567 160,567 Z M160,73 C164.418278,73 168,69.418278 168,65 C168,60.581722 164.418278,57 160,57 C155.581722,57 152,60.581722 152,65 C152,69.418278 155.581722,73 160,73 Z M160,377 C164.418278,377 168,373.418278 168,369 C168,364.581722 164.418278,361 160,361 C155.581722,361 152,364.581722 152,369 C152,373.418278 155.581722,377 160,377 Z M160,225 C164.418278,225 168,221.418278 168,217 C168,212.581722 164.418278,209 160,209 C155.581722,209 152,212.581722 152,217 C152,221.418278 155.581722,225 160,225 Z M160,529 C164.418278,529 168,525.418278 168,521 C168,516.581722 164.418278,513 160,513 C155.581722,513 152,516.581722 152,521 C152,525.418278 155.581722,529 160,529 Z M160,149 C164.418278,149 168,145.418278 168,141 C168,136.581722 164.418278,133 160,133 C155.581722,133 152,136.581722 152,141 C152,145.418278 155.581722,149 160,149 Z M160,453 C164.418278,453 168,449.418278 168,445 C168,440.581722 164.418278,437 160,437 C155.581722,437 152,440.581722 152,445 C152,449.418278 155.581722,453 160,453 Z M160,301 C164.418278,301 168,297.418278 168,293 C168,288.581722 164.418278,285 160,285 C155.581722,285 152,288.581722 152,293 C152,297.418278 155.581722,301 160,301 Z M160,605 C164.418278,605 168,601.418278 168,597 C168,592.581722 164.418278,589 160,589 C155.581722,589 152,592.581722 152,597 C152,601.418278 155.581722,605 160,605 Z M236,16 C240.418278,16 244,12.418278 244,8 C244,3.581722 240.418278,0 236,0 C231.581722,0 228,3.581722 228,8 C228,12.418278 231.581722,16 236,16 Z M236,320 C240.418278,320 244,316.418278 244,312 C244,307.581722 240.418278,304 236,304 C231.581722,304 228,307.581722 228,312 C228,316.418278 231.581722,320 236,320 Z M236,168 C240.418278,168 244,164.418278 244,160 C244,155.581722 240.418278,152 236,152 C231.581722,152 228,155.581722 228,160 C228,164.418278 231.581722,168 236,168 Z M236,472 C240.418278,472 244,468.418278 244,464 C244,459.581722 240.418278,456 236,456 C231.581722,456 228,459.581722 228,464 C228,468.418278 231.581722,472 236,472 Z M236,92 C240.418278,92 244,88.418278 244,84 C244,79.581722 240.418278,76 236,76 C231.581722,76 228,79.581722 228,84 C228,88.418278 231.581722,92 236,92 Z M236,396 C240.418278,396 244,392.418278 244,388 C244,383.581722 240.418278,380 236,380 C231.581722,380 228,383.581722 228,388 C228,392.418278 231.581722,396 236,396 Z M236,244 C240.418278,244 244,240.418278 244,236 C244,231.581722 240.418278,228 236,228 C231.581722,228 228,231.581722 228,236 C228,240.418278 231.581722,244 236,244 Z M236,548 C240.418278,548 244,544.418278 244,540 C244,535.581722 240.418278,532 236,532 C231.581722,532 228,535.581722 228,540 C228,544.418278 231.581722,548 236,548 Z M236,54 C240.418278,54 244,50.418278 244,46 C244,41.581722 240.418278,38 236,38 C231.581722,38 228,41.581722 228,46 C228,50.418278 231.581722,54 236,54 Z M236,358 C240.418278,358 244,354.418278 244,350 C244,345.581722 240.418278,342 236,342 C231.581722,342 228,345.581722 228,350 C228,354.418278 231.581722,358 236,358 Z M236,206 C240.418278,206 244,202.418278 244,198 C244,193.581722 240.418278,190 236,190 C231.581722,190 228,193.581722 228,198 C228,202.418278 231.581722,206 236,206 Z M236,510 C240.418278,510 244,506.418278 244,502 C244,497.581722 240.418278,494 236,494 C231.581722,494 228,497.581722 228,502 C228,506.418278 231.581722,510 236,510 Z M236,130 C240.418278,130 244,126.418278 244,122 C244,117.581722 240.418278,114 236,114 C231.581722,114 228,117.581722 228,122 C228,126.418278 231.581722,130 236,130 Z M236,434 C240.418278,434 244,430.418278 244,426 C244,421.581722 240.418278,418 236,418 C231.581722,418 228,421.581722 228,426 C228,430.418278 231.581722,434 236,434 Z M236,282 C240.418278,282 244,278.418278 244,274 C244,269.581722 240.418278,266 236,266 C231.581722,266 228,269.581722 228,274 C228,278.418278 231.581722,282 236,282 Z M236,586 C240.418278,586 244,582.418278 244,578 C244,573.581722 240.418278,570 236,570 C231.581722,570 228,573.581722 228,578 C228,582.418278 231.581722,586 236,586 Z M236,35 C240.418278,35 244,31.418278 244,27 C244,22.581722 240.418278,19 236,19 C231.581722,19 228,22.581722 228,27 C228,31.418278 231.581722,35 236,35 Z M236,339 C240.418278,339 244,335.418278 244,331 C244,326.581722 240.418278,323 236,323 C231.581722,323 228,326.581722 228,331 C228,335.418278 231.581722,339 236,339 Z M236,187 C240.418278,187 244,183.418278 244,179 C244,174.581722 240.418278,171 236,171 C231.581722,171 228,174.581722 228,179 C228,183.418278 231.581722,187 236,187 Z M236,491 C240.418278,491 244,487.418278 244,483 C244,478.581722 240.418278,475 236,475 C231.581722,475 228,478.581722 228,483 C228,487.418278 231.581722,491 236,491 Z M236,111 C240.418278,111 244,107.418278 244,103 C244,98.581722 240.418278,95 236,95 C231.581722,95 228,98.581722 228,103 C228,107.418278 231.581722,111 236,111 Z M236,415 C240.418278,415 244,411.418278 244,407 C244,402.581722 240.418278,399 236,399 C231.581722,399 228,402.581722 228,407 C228,411.418278 231.581722,415 236,415 Z M236,263 C240.418278,263 244,259.418278 244,255 C244,250.581722 240.418278,247 236,247 C231.581722,247 228,250.581722 228,255 C228,259.418278 231.581722,263 236,263 Z M236,567 C240.418278,567 244,563.418278 244,559 C244,554.581722 240.418278,551 236,551 C231.581722,551 228,554.581722 228,559 C228,563.418278 231.581722,567 236,567 Z M236,73 C240.418278,73 244,69.418278 244,65 C244,60.581722 240.418278,57 236,57 C231.581722,57 228,60.581722 228,65 C228,69.418278 231.581722,73 236,73 Z M236,377 C240.418278,377 244,373.418278 244,369 C244,364.581722 240.418278,361 236,361 C231.581722,361 228,364.581722 228,369 C228,373.418278 231.581722,377 236,377 Z M236,225 C240.418278,225 244,221.418278 244,217 C244,212.581722 240.418278,209 236,209 C231.581722,209 228,212.581722 228,217 C228,221.418278 231.581722,225 236,225 Z M236,529 C240.418278,529 244,525.418278 244,521 C244,516.581722 240.418278,513 236,513 C231.581722,513 228,516.581722 228,521 C228,525.418278 231.581722,529 236,529 Z M236,149 C240.418278,149 244,145.418278 244,141 C244,136.581722 240.418278,133 236,133 C231.581722,133 228,136.581722 228,141 C228,145.418278 231.581722,149 236,149 Z M236,453 C240.418278,453 244,449.418278 244,445 C244,440.581722 240.418278,437 236,437 C231.581722,437 228,440.581722 228,445 C228,449.418278 231.581722,453 236,453 Z M236,301 C240.418278,301 244,297.418278 244,293 C244,288.581722 240.418278,285 236,285 C231.581722,285 228,288.581722 228,293 C228,297.418278 231.581722,301 236,301 Z M236,605 C240.418278,605 244,601.418278 244,597 C244,592.581722 240.418278,589 236,589 C231.581722,589 228,592.581722 228,597 C228,601.418278 231.581722,605 236,605 Z M65,16 C69.418278,16 73,12.418278 73,8 C73,3.581722 69.418278,0 65,0 C60.581722,0 57,3.581722 57,8 C57,12.418278 60.581722,16 65,16 Z M65,320 C69.418278,320 73,316.418278 73,312 C73,307.581722 69.418278,304 65,304 C60.581722,304 57,307.581722 57,312 C57,316.418278 60.581722,320 65,320 Z M65,168 C69.418278,168 73,164.418278 73,160 C73,155.581722 69.418278,152 65,152 C60.581722,152 57,155.581722 57,160 C57,164.418278 60.581722,168 65,168 Z M65,472 C69.418278,472 73,468.418278 73,464 C73,459.581722 69.418278,456 65,456 C60.581722,456 57,459.581722 57,464 C57,468.418278 60.581722,472 65,472 Z M65,92 C69.418278,92 73,88.418278 73,84 C73,79.581722 69.418278,76 65,76 C60.581722,76 57,79.581722 57,84 C57,88.418278 60.581722,92 65,92 Z M65,396 C69.418278,396 73,392.418278 73,388 C73,383.581722 69.418278,380 65,380 C60.581722,380 57,383.581722 57,388 C57,392.418278 60.581722,396 65,396 Z M65,244 C69.418278,244 73,240.418278 73,236 C73,231.581722 69.418278,228 65,228 C60.581722,228 57,231.581722 57,236 C57,240.418278 60.581722,244 65,244 Z M65,548 C69.418278,548 73,544.418278 73,540 C73,535.581722 69.418278,532 65,532 C60.581722,532 57,535.581722 57,540 C57,544.418278 60.581722,548 65,548 Z M65,54 C69.418278,54 73,50.418278 73,46 C73,41.581722 69.418278,38 65,38 C60.581722,38 57,41.581722 57,46 C57,50.418278 60.581722,54 65,54 Z M65,358 C69.418278,358 73,354.418278 73,350 C73,345.581722 69.418278,342 65,342 C60.581722,342 57,345.581722 57,350 C57,354.418278 60.581722,358 65,358 Z M65,206 C69.418278,206 73,202.418278 73,198 C73,193.581722 69.418278,190 65,190 C60.581722,190 57,193.581722 57,198 C57,202.418278 60.581722,206 65,206 Z M65,510 C69.418278,510 73,506.418278 73,502 C73,497.581722 69.418278,494 65,494 C60.581722,494 57,497.581722 57,502 C57,506.418278 60.581722,510 65,510 Z M65,130 C69.418278,130 73,126.418278 73,122 C73,117.581722 69.418278,114 65,114 C60.581722,114 57,117.581722 57,122 C57,126.418278 60.581722,130 65,130 Z M65,434 C69.418278,434 73,430.418278 73,426 C73,421.581722 69.418278,418 65,418 C60.581722,418 57,421.581722 57,426 C57,430.418278 60.581722,434 65,434 Z M65,282 C69.418278,282 73,278.418278 73,274 C73,269.581722 69.418278,266 65,266 C60.581722,266 57,269.581722 57,274 C57,278.418278 60.581722,282 65,282 Z M65,586 C69.418278,586 73,582.418278 73,578 C73,573.581722 69.418278,570 65,570 C60.581722,570 57,573.581722 57,578 C57,582.418278 60.581722,586 65,586 Z M65,35 C69.418278,35 73,31.418278 73,27 C73,22.581722 69.418278,19 65,19 C60.581722,19 57,22.581722 57,27 C57,31.418278 60.581722,35 65,35 Z M65,339 C69.418278,339 73,335.418278 73,331 C73,326.581722 69.418278,323 65,323 C60.581722,323 57,326.581722 57,331 C57,335.418278 60.581722,339 65,339 Z M65,187 C69.418278,187 73,183.418278 73,179 C73,174.581722 69.418278,171 65,171 C60.581722,171 57,174.581722 57,179 C57,183.418278 60.581722,187 65,187 Z M65,491 C69.418278,491 73,487.418278 73,483 C73,478.581722 69.418278,475 65,475 C60.581722,475 57,478.581722 57,483 C57,487.418278 60.581722,491 65,491 Z M65,111 C69.418278,111 73,107.418278 73,103 C73,98.581722 69.418278,95 65,95 C60.581722,95 57,98.581722 57,103 C57,107.418278 60.581722,111 65,111 Z M65,415 C69.418278,415 73,411.418278 73,407 C73,402.581722 69.418278,399 65,399 C60.581722,399 57,402.581722 57,407 C57,411.418278 60.581722,415 65,415 Z M65,263 C69.418278,263 73,259.418278 73,255 C73,250.581722 69.418278,247 65,247 C60.581722,247 57,250.581722 57,255 C57,259.418278 60.581722,263 65,263 Z M65,567 C69.418278,567 73,563.418278 73,559 C73,554.581722 69.418278,551 65,551 C60.581722,551 57,554.581722 57,559 C57,563.418278 60.581722,567 65,567 Z M65,73 C69.418278,73 73,69.418278 73,65 C73,60.581722 69.418278,57 65,57 C60.581722,57 57,60.581722 57,65 C57,69.418278 60.581722,73 65,73 Z M65,377 C69.418278,377 73,373.418278 73,369 C73,364.581722 69.418278,361 65,361 C60.581722,361 57,364.581722 57,369 C57,373.418278 60.581722,377 65,377 Z M65,225 C69.418278,225 73,221.418278 73,217 C73,212.581722 69.418278,209 65,209 C60.581722,209 57,212.581722 57,217 C57,221.418278 60.581722,225 65,225 Z M65,529 C69.418278,529 73,525.418278 73,521 C73,516.581722 69.418278,513 65,513 C60.581722,513 57,516.581722 57,521 C57,525.418278 60.581722,529 65,529 Z M65,149 C69.418278,149 73,145.418278 73,141 C73,136.581722 69.418278,133 65,133 C60.581722,133 57,136.581722 57,141 C57,145.418278 60.581722,149 65,149 Z M65,453 C69.418278,453 73,449.418278 73,445 C73,440.581722 69.418278,437 65,437 C60.581722,437 57,440.581722 57,445 C57,449.418278 60.581722,453 65,453 Z M65,301 C69.418278,301 73,297.418278 73,293 C73,288.581722 69.418278,285 65,285 C60.581722,285 57,288.581722 57,293 C57,297.418278 60.581722,301 65,301 Z M65,605 C69.418278,605 73,601.418278 73,597 C73,592.581722 69.418278,589 65,589 C60.581722,589 57,592.581722 57,597 C57,601.418278 60.581722,605 65,605 Z M179,16 C183.418278,16 187,12.418278 187,8 C187,3.581722 183.418278,0 179,0 C174.581722,0 171,3.581722 171,8 C171,12.418278 174.581722,16 179,16 Z M179,320 C183.418278,320 187,316.418278 187,312 C187,307.581722 183.418278,304 179,304 C174.581722,304 171,307.581722 171,312 C171,316.418278 174.581722,320 179,320 Z M179,168 C183.418278,168 187,164.418278 187,160 C187,155.581722 183.418278,152 179,152 C174.581722,152 171,155.581722 171,160 C171,164.418278 174.581722,168 179,168 Z M179,472 C183.418278,472 187,468.418278 187,464 C187,459.581722 183.418278,456 179,456 C174.581722,456 171,459.581722 171,464 C171,468.418278 174.581722,472 179,472 Z M179,92 C183.418278,92 187,88.418278 187,84 C187,79.581722 183.418278,76 179,76 C174.581722,76 171,79.581722 171,84 C171,88.418278 174.581722,92 179,92 Z M179,396 C183.418278,396 187,392.418278 187,388 C187,383.581722 183.418278,380 179,380 C174.581722,380 171,383.581722 171,388 C171,392.418278 174.581722,396 179,396 Z M179,244 C183.418278,244 187,240.418278 187,236 C187,231.581722 183.418278,228 179,228 C174.581722,228 171,231.581722 171,236 C171,240.418278 174.581722,244 179,244 Z M179,548 C183.418278,548 187,544.418278 187,540 C187,535.581722 183.418278,532 179,532 C174.581722,532 171,535.581722 171,540 C171,544.418278 174.581722,548 179,548 Z M179,54 C183.418278,54 187,50.418278 187,46 C187,41.581722 183.418278,38 179,38 C174.581722,38 171,41.581722 171,46 C171,50.418278 174.581722,54 179,54 Z M179,358 C183.418278,358 187,354.418278 187,350 C187,345.581722 183.418278,342 179,342 C174.581722,342 171,345.581722 171,350 C171,354.418278 174.581722,358 179,358 Z M179,206 C183.418278,206 187,202.418278 187,198 C187,193.581722 183.418278,190 179,190 C174.581722,190 171,193.581722 171,198 C171,202.418278 174.581722,206 179,206 Z M179,510 C183.418278,510 187,506.418278 187,502 C187,497.581722 183.418278,494 179,494 C174.581722,494 171,497.581722 171,502 C171,506.418278 174.581722,510 179,510 Z M179,130 C183.418278,130 187,126.418278 187,122 C187,117.581722 183.418278,114 179,114 C174.581722,114 171,117.581722 171,122 C171,126.418278 174.581722,130 179,130 Z M179,434 C183.418278,434 187,430.418278 187,426 C187,421.581722 183.418278,418 179,418 C174.581722,418 171,421.581722 171,426 C171,430.418278 174.581722,434 179,434 Z M179,282 C183.418278,282 187,278.418278 187,274 C187,269.581722 183.418278,266 179,266 C174.581722,266 171,269.581722 171,274 C171,278.418278 174.581722,282 179,282 Z M179,586 C183.418278,586 187,582.418278 187,578 C187,573.581722 183.418278,570 179,570 C174.581722,570 171,573.581722 171,578 C171,582.418278 174.581722,586 179,586 Z M179,35 C183.418278,35 187,31.418278 187,27 C187,22.581722 183.418278,19 179,19 C174.581722,19 171,22.581722 171,27 C171,31.418278 174.581722,35 179,35 Z M179,339 C183.418278,339 187,335.418278 187,331 C187,326.581722 183.418278,323 179,323 C174.581722,323 171,326.581722 171,331 C171,335.418278 174.581722,339 179,339 Z M179,187 C183.418278,187 187,183.418278 187,179 C187,174.581722 183.418278,171 179,171 C174.581722,171 171,174.581722 171,179 C171,183.418278 174.581722,187 179,187 Z M179,491 C183.418278,491 187,487.418278 187,483 C187,478.581722 183.418278,475 179,475 C174.581722,475 171,478.581722 171,483 C171,487.418278 174.581722,491 179,491 Z M179,111 C183.418278,111 187,107.418278 187,103 C187,98.581722 183.418278,95 179,95 C174.581722,95 171,98.581722 171,103 C171,107.418278 174.581722,111 179,111 Z M179,415 C183.418278,415 187,411.418278 187,407 C187,402.581722 183.418278,399 179,399 C174.581722,399 171,402.581722 171,407 C171,411.418278 174.581722,415 179,415 Z M179,263 C183.418278,263 187,259.418278 187,255 C187,250.581722 183.418278,247 179,247 C174.581722,247 171,250.581722 171,255 C171,259.418278 174.581722,263 179,263 Z M179,567 C183.418278,567 187,563.418278 187,559 C187,554.581722 183.418278,551 179,551 C174.581722,551 171,554.581722 171,559 C171,563.418278 174.581722,567 179,567 Z M179,73 C183.418278,73 187,69.418278 187,65 C187,60.581722 183.418278,57 179,57 C174.581722,57 171,60.581722 171,65 C171,69.418278 174.581722,73 179,73 Z M179,377 C183.418278,377 187,373.418278 187,369 C187,364.581722 183.418278,361 179,361 C174.581722,361 171,364.581722 171,369 C171,373.418278 174.581722,377 179,377 Z M179,225 C183.418278,225 187,221.418278 187,217 C187,212.581722 183.418278,209 179,209 C174.581722,209 171,212.581722 171,217 C171,221.418278 174.581722,225 179,225 Z M179,529 C183.418278,529 187,525.418278 187,521 C187,516.581722 183.418278,513 179,513 C174.581722,513 171,516.581722 171,521 C171,525.418278 174.581722,529 179,529 Z M179,149 C183.418278,149 187,145.418278 187,141 C187,136.581722 183.418278,133 179,133 C174.581722,133 171,136.581722 171,141 C171,145.418278 174.581722,149 179,149 Z M179,453 C183.418278,453 187,449.418278 187,445 C187,440.581722 183.418278,437 179,437 C174.581722,437 171,440.581722 171,445 C171,449.418278 174.581722,453 179,453 Z M179,301 C183.418278,301 187,297.418278 187,293 C187,288.581722 183.418278,285 179,285 C174.581722,285 171,288.581722 171,293 C171,297.418278 174.581722,301 179,301 Z M179,605 C183.418278,605 187,601.418278 187,597 C187,592.581722 183.418278,589 179,589 C174.581722,589 171,592.581722 171,597 C171,601.418278 174.581722,605 179,605 Z M255,16 C259.418278,16 263,12.418278 263,8 C263,3.581722 259.418278,0 255,0 C250.581722,0 247,3.581722 247,8 C247,12.418278 250.581722,16 255,16 Z M255,320 C259.418278,320 263,316.418278 263,312 C263,307.581722 259.418278,304 255,304 C250.581722,304 247,307.581722 247,312 C247,316.418278 250.581722,320 255,320 Z M255,168 C259.418278,168 263,164.418278 263,160 C263,155.581722 259.418278,152 255,152 C250.581722,152 247,155.581722 247,160 C247,164.418278 250.581722,168 255,168 Z M255,472 C259.418278,472 263,468.418278 263,464 C263,459.581722 259.418278,456 255,456 C250.581722,456 247,459.581722 247,464 C247,468.418278 250.581722,472 255,472 Z M255,92 C259.418278,92 263,88.418278 263,84 C263,79.581722 259.418278,76 255,76 C250.581722,76 247,79.581722 247,84 C247,88.418278 250.581722,92 255,92 Z M255,396 C259.418278,396 263,392.418278 263,388 C263,383.581722 259.418278,380 255,380 C250.581722,380 247,383.581722 247,388 C247,392.418278 250.581722,396 255,396 Z M255,244 C259.418278,244 263,240.418278 263,236 C263,231.581722 259.418278,228 255,228 C250.581722,228 247,231.581722 247,236 C247,240.418278 250.581722,244 255,244 Z M255,548 C259.418278,548 263,544.418278 263,540 C263,535.581722 259.418278,532 255,532 C250.581722,532 247,535.581722 247,540 C247,544.418278 250.581722,548 255,548 Z M255,54 C259.418278,54 263,50.418278 263,46 C263,41.581722 259.418278,38 255,38 C250.581722,38 247,41.581722 247,46 C247,50.418278 250.581722,54 255,54 Z M255,358 C259.418278,358 263,354.418278 263,350 C263,345.581722 259.418278,342 255,342 C250.581722,342 247,345.581722 247,350 C247,354.418278 250.581722,358 255,358 Z M255,206 C259.418278,206 263,202.418278 263,198 C263,193.581722 259.418278,190 255,190 C250.581722,190 247,193.581722 247,198 C247,202.418278 250.581722,206 255,206 Z M255,510 C259.418278,510 263,506.418278 263,502 C263,497.581722 259.418278,494 255,494 C250.581722,494 247,497.581722 247,502 C247,506.418278 250.581722,510 255,510 Z M255,130 C259.418278,130 263,126.418278 263,122 C263,117.581722 259.418278,114 255,114 C250.581722,114 247,117.581722 247,122 C247,126.418278 250.581722,130 255,130 Z M255,434 C259.418278,434 263,430.418278 263,426 C263,421.581722 259.418278,418 255,418 C250.581722,418 247,421.581722 247,426 C247,430.418278 250.581722,434 255,434 Z M255,282 C259.418278,282 263,278.418278 263,274 C263,269.581722 259.418278,266 255,266 C250.581722,266 247,269.581722 247,274 C247,278.418278 250.581722,282 255,282 Z M255,586 C259.418278,586 263,582.418278 263,578 C263,573.581722 259.418278,570 255,570 C250.581722,570 247,573.581722 247,578 C247,582.418278 250.581722,586 255,586 Z M255,35 C259.418278,35 263,31.418278 263,27 C263,22.581722 259.418278,19 255,19 C250.581722,19 247,22.581722 247,27 C247,31.418278 250.581722,35 255,35 Z M255,339 C259.418278,339 263,335.418278 263,331 C263,326.581722 259.418278,323 255,323 C250.581722,323 247,326.581722 247,331 C247,335.418278 250.581722,339 255,339 Z M255,187 C259.418278,187 263,183.418278 263,179 C263,174.581722 259.418278,171 255,171 C250.581722,171 247,174.581722 247,179 C247,183.418278 250.581722,187 255,187 Z M255,491 C259.418278,491 263,487.418278 263,483 C263,478.581722 259.418278,475 255,475 C250.581722,475 247,478.581722 247,483 C247,487.418278 250.581722,491 255,491 Z M255,111 C259.418278,111 263,107.418278 263,103 C263,98.581722 259.418278,95 255,95 C250.581722,95 247,98.581722 247,103 C247,107.418278 250.581722,111 255,111 Z M255,415 C259.418278,415 263,411.418278 263,407 C263,402.581722 259.418278,399 255,399 C250.581722,399 247,402.581722 247,407 C247,411.418278 250.581722,415 255,415 Z M255,263 C259.418278,263 263,259.418278 263,255 C263,250.581722 259.418278,247 255,247 C250.581722,247 247,250.581722 247,255 C247,259.418278 250.581722,263 255,263 Z M255,567 C259.418278,567 263,563.418278 263,559 C263,554.581722 259.418278,551 255,551 C250.581722,551 247,554.581722 247,559 C247,563.418278 250.581722,567 255,567 Z M255,73 C259.418278,73 263,69.418278 263,65 C263,60.581722 259.418278,57 255,57 C250.581722,57 247,60.581722 247,65 C247,69.418278 250.581722,73 255,73 Z M255,377 C259.418278,377 263,373.418278 263,369 C263,364.581722 259.418278,361 255,361 C250.581722,361 247,364.581722 247,369 C247,373.418278 250.581722,377 255,377 Z M255,225 C259.418278,225 263,221.418278 263,217 C263,212.581722 259.418278,209 255,209 C250.581722,209 247,212.581722 247,217 C247,221.418278 250.581722,225 255,225 Z M255,529 C259.418278,529 263,525.418278 263,521 C263,516.581722 259.418278,513 255,513 C250.581722,513 247,516.581722 247,521 C247,525.418278 250.581722,529 255,529 Z M255,149 C259.418278,149 263,145.418278 263,141 C263,136.581722 259.418278,133 255,133 C250.581722,133 247,136.581722 247,141 C247,145.418278 250.581722,149 255,149 Z M255,453 C259.418278,453 263,449.418278 263,445 C263,440.581722 259.418278,437 255,437 C250.581722,437 247,440.581722 247,445 C247,449.418278 250.581722,453 255,453 Z M255,301 C259.418278,301 263,297.418278 263,293 C263,288.581722 259.418278,285 255,285 C250.581722,285 247,288.581722 247,293 C247,297.418278 250.581722,301 255,301 Z M255,605 C259.418278,605 263,601.418278 263,597 C263,592.581722 259.418278,589 255,589 C250.581722,589 247,592.581722 247,597 C247,601.418278 250.581722,605 255,605 Z M84,16 C88.418278,16 92,12.418278 92,8 C92,3.581722 88.418278,0 84,0 C79.581722,0 76,3.581722 76,8 C76,12.418278 79.581722,16 84,16 Z M84,320 C88.418278,320 92,316.418278 92,312 C92,307.581722 88.418278,304 84,304 C79.581722,304 76,307.581722 76,312 C76,316.418278 79.581722,320 84,320 Z M84,168 C88.418278,168 92,164.418278 92,160 C92,155.581722 88.418278,152 84,152 C79.581722,152 76,155.581722 76,160 C76,164.418278 79.581722,168 84,168 Z M84,472 C88.418278,472 92,468.418278 92,464 C92,459.581722 88.418278,456 84,456 C79.581722,456 76,459.581722 76,464 C76,468.418278 79.581722,472 84,472 Z M84,92 C88.418278,92 92,88.418278 92,84 C92,79.581722 88.418278,76 84,76 C79.581722,76 76,79.581722 76,84 C76,88.418278 79.581722,92 84,92 Z M84,396 C88.418278,396 92,392.418278 92,388 C92,383.581722 88.418278,380 84,380 C79.581722,380 76,383.581722 76,388 C76,392.418278 79.581722,396 84,396 Z M84,244 C88.418278,244 92,240.418278 92,236 C92,231.581722 88.418278,228 84,228 C79.581722,228 76,231.581722 76,236 C76,240.418278 79.581722,244 84,244 Z M84,548 C88.418278,548 92,544.418278 92,540 C92,535.581722 88.418278,532 84,532 C79.581722,532 76,535.581722 76,540 C76,544.418278 79.581722,548 84,548 Z M84,54 C88.418278,54 92,50.418278 92,46 C92,41.581722 88.418278,38 84,38 C79.581722,38 76,41.581722 76,46 C76,50.418278 79.581722,54 84,54 Z M84,358 C88.418278,358 92,354.418278 92,350 C92,345.581722 88.418278,342 84,342 C79.581722,342 76,345.581722 76,350 C76,354.418278 79.581722,358 84,358 Z M84,206 C88.418278,206 92,202.418278 92,198 C92,193.581722 88.418278,190 84,190 C79.581722,190 76,193.581722 76,198 C76,202.418278 79.581722,206 84,206 Z M84,510 C88.418278,510 92,506.418278 92,502 C92,497.581722 88.418278,494 84,494 C79.581722,494 76,497.581722 76,502 C76,506.418278 79.581722,510 84,510 Z M84,130 C88.418278,130 92,126.418278 92,122 C92,117.581722 88.418278,114 84,114 C79.581722,114 76,117.581722 76,122 C76,126.418278 79.581722,130 84,130 Z M84,434 C88.418278,434 92,430.418278 92,426 C92,421.581722 88.418278,418 84,418 C79.581722,418 76,421.581722 76,426 C76,430.418278 79.581722,434 84,434 Z M84,282 C88.418278,282 92,278.418278 92,274 C92,269.581722 88.418278,266 84,266 C79.581722,266 76,269.581722 76,274 C76,278.418278 79.581722,282 84,282 Z M84,586 C88.418278,586 92,582.418278 92,578 C92,573.581722 88.418278,570 84,570 C79.581722,570 76,573.581722 76,578 C76,582.418278 79.581722,586 84,586 Z M84,35 C88.418278,35 92,31.418278 92,27 C92,22.581722 88.418278,19 84,19 C79.581722,19 76,22.581722 76,27 C76,31.418278 79.581722,35 84,35 Z M84,339 C88.418278,339 92,335.418278 92,331 C92,326.581722 88.418278,323 84,323 C79.581722,323 76,326.581722 76,331 C76,335.418278 79.581722,339 84,339 Z M84,187 C88.418278,187 92,183.418278 92,179 C92,174.581722 88.418278,171 84,171 C79.581722,171 76,174.581722 76,179 C76,183.418278 79.581722,187 84,187 Z M84,491 C88.418278,491 92,487.418278 92,483 C92,478.581722 88.418278,475 84,475 C79.581722,475 76,478.581722 76,483 C76,487.418278 79.581722,491 84,491 Z M84,111 C88.418278,111 92,107.418278 92,103 C92,98.581722 88.418278,95 84,95 C79.581722,95 76,98.581722 76,103 C76,107.418278 79.581722,111 84,111 Z M84,415 C88.418278,415 92,411.418278 92,407 C92,402.581722 88.418278,399 84,399 C79.581722,399 76,402.581722 76,407 C76,411.418278 79.581722,415 84,415 Z M84,263 C88.418278,263 92,259.418278 92,255 C92,250.581722 88.418278,247 84,247 C79.581722,247 76,250.581722 76,255 C76,259.418278 79.581722,263 84,263 Z M84,567 C88.418278,567 92,563.418278 92,559 C92,554.581722 88.418278,551 84,551 C79.581722,551 76,554.581722 76,559 C76,563.418278 79.581722,567 84,567 Z M84,73 C88.418278,73 92,69.418278 92,65 C92,60.581722 88.418278,57 84,57 C79.581722,57 76,60.581722 76,65 C76,69.418278 79.581722,73 84,73 Z M84,377 C88.418278,377 92,373.418278 92,369 C92,364.581722 88.418278,361 84,361 C79.581722,361 76,364.581722 76,369 C76,373.418278 79.581722,377 84,377 Z M84,225 C88.418278,225 92,221.418278 92,217 C92,212.581722 88.418278,209 84,209 C79.581722,209 76,212.581722 76,217 C76,221.418278 79.581722,225 84,225 Z M84,529 C88.418278,529 92,525.418278 92,521 C92,516.581722 88.418278,513 84,513 C79.581722,513 76,516.581722 76,521 C76,525.418278 79.581722,529 84,529 Z M84,149 C88.418278,149 92,145.418278 92,141 C92,136.581722 88.418278,133 84,133 C79.581722,133 76,136.581722 76,141 C76,145.418278 79.581722,149 84,149 Z M84,453 C88.418278,453 92,449.418278 92,445 C92,440.581722 88.418278,437 84,437 C79.581722,437 76,440.581722 76,445 C76,449.418278 79.581722,453 84,453 Z M84,301 C88.418278,301 92,297.418278 92,293 C92,288.581722 88.418278,285 84,285 C79.581722,285 76,288.581722 76,293 C76,297.418278 79.581722,301 84,301 Z M84,605 C88.418278,605 92,601.418278 92,597 C92,592.581722 88.418278,589 84,589 C79.581722,589 76,592.581722 76,597 C76,601.418278 79.581722,605 84,605 Z M198,16 C202.418278,16 206,12.418278 206,8 C206,3.581722 202.418278,0 198,0 C193.581722,0 190,3.581722 190,8 C190,12.418278 193.581722,16 198,16 Z M198,320 C202.418278,320 206,316.418278 206,312 C206,307.581722 202.418278,304 198,304 C193.581722,304 190,307.581722 190,312 C190,316.418278 193.581722,320 198,320 Z M198,168 C202.418278,168 206,164.418278 206,160 C206,155.581722 202.418278,152 198,152 C193.581722,152 190,155.581722 190,160 C190,164.418278 193.581722,168 198,168 Z M198,472 C202.418278,472 206,468.418278 206,464 C206,459.581722 202.418278,456 198,456 C193.581722,456 190,459.581722 190,464 C190,468.418278 193.581722,472 198,472 Z M198,92 C202.418278,92 206,88.418278 206,84 C206,79.581722 202.418278,76 198,76 C193.581722,76 190,79.581722 190,84 C190,88.418278 193.581722,92 198,92 Z M198,396 C202.418278,396 206,392.418278 206,388 C206,383.581722 202.418278,380 198,380 C193.581722,380 190,383.581722 190,388 C190,392.418278 193.581722,396 198,396 Z M198,244 C202.418278,244 206,240.418278 206,236 C206,231.581722 202.418278,228 198,228 C193.581722,228 190,231.581722 190,236 C190,240.418278 193.581722,244 198,244 Z M198,548 C202.418278,548 206,544.418278 206,540 C206,535.581722 202.418278,532 198,532 C193.581722,532 190,535.581722 190,540 C190,544.418278 193.581722,548 198,548 Z M198,54 C202.418278,54 206,50.418278 206,46 C206,41.581722 202.418278,38 198,38 C193.581722,38 190,41.581722 190,46 C190,50.418278 193.581722,54 198,54 Z M198,358 C202.418278,358 206,354.418278 206,350 C206,345.581722 202.418278,342 198,342 C193.581722,342 190,345.581722 190,350 C190,354.418278 193.581722,358 198,358 Z M198,206 C202.418278,206 206,202.418278 206,198 C206,193.581722 202.418278,190 198,190 C193.581722,190 190,193.581722 190,198 C190,202.418278 193.581722,206 198,206 Z M198,510 C202.418278,510 206,506.418278 206,502 C206,497.581722 202.418278,494 198,494 C193.581722,494 190,497.581722 190,502 C190,506.418278 193.581722,510 198,510 Z M198,130 C202.418278,130 206,126.418278 206,122 C206,117.581722 202.418278,114 198,114 C193.581722,114 190,117.581722 190,122 C190,126.418278 193.581722,130 198,130 Z M198,434 C202.418278,434 206,430.418278 206,426 C206,421.581722 202.418278,418 198,418 C193.581722,418 190,421.581722 190,426 C190,430.418278 193.581722,434 198,434 Z M198,282 C202.418278,282 206,278.418278 206,274 C206,269.581722 202.418278,266 198,266 C193.581722,266 190,269.581722 190,274 C190,278.418278 193.581722,282 198,282 Z M198,586 C202.418278,586 206,582.418278 206,578 C206,573.581722 202.418278,570 198,570 C193.581722,570 190,573.581722 190,578 C190,582.418278 193.581722,586 198,586 Z M198,35 C202.418278,35 206,31.418278 206,27 C206,22.581722 202.418278,19 198,19 C193.581722,19 190,22.581722 190,27 C190,31.418278 193.581722,35 198,35 Z M198,339 C202.418278,339 206,335.418278 206,331 C206,326.581722 202.418278,323 198,323 C193.581722,323 190,326.581722 190,331 C190,335.418278 193.581722,339 198,339 Z M198,187 C202.418278,187 206,183.418278 206,179 C206,174.581722 202.418278,171 198,171 C193.581722,171 190,174.581722 190,179 C190,183.418278 193.581722,187 198,187 Z M198,491 C202.418278,491 206,487.418278 206,483 C206,478.581722 202.418278,475 198,475 C193.581722,475 190,478.581722 190,483 C190,487.418278 193.581722,491 198,491 Z M198,111 C202.418278,111 206,107.418278 206,103 C206,98.581722 202.418278,95 198,95 C193.581722,95 190,98.581722 190,103 C190,107.418278 193.581722,111 198,111 Z M198,415 C202.418278,415 206,411.418278 206,407 C206,402.581722 202.418278,399 198,399 C193.581722,399 190,402.581722 190,407 C190,411.418278 193.581722,415 198,415 Z M198,263 C202.418278,263 206,259.418278 206,255 C206,250.581722 202.418278,247 198,247 C193.581722,247 190,250.581722 190,255 C190,259.418278 193.581722,263 198,263 Z M198,567 C202.418278,567 206,563.418278 206,559 C206,554.581722 202.418278,551 198,551 C193.581722,551 190,554.581722 190,559 C190,563.418278 193.581722,567 198,567 Z M198,73 C202.418278,73 206,69.418278 206,65 C206,60.581722 202.418278,57 198,57 C193.581722,57 190,60.581722 190,65 C190,69.418278 193.581722,73 198,73 Z M198,377 C202.418278,377 206,373.418278 206,369 C206,364.581722 202.418278,361 198,361 C193.581722,361 190,364.581722 190,369 C190,373.418278 193.581722,377 198,377 Z M198,225 C202.418278,225 206,221.418278 206,217 C206,212.581722 202.418278,209 198,209 C193.581722,209 190,212.581722 190,217 C190,221.418278 193.581722,225 198,225 Z M198,529 C202.418278,529 206,525.418278 206,521 C206,516.581722 202.418278,513 198,513 C193.581722,513 190,516.581722 190,521 C190,525.418278 193.581722,529 198,529 Z M198,149 C202.418278,149 206,145.418278 206,141 C206,136.581722 202.418278,133 198,133 C193.581722,133 190,136.581722 190,141 C190,145.418278 193.581722,149 198,149 Z M198,453 C202.418278,453 206,449.418278 206,445 C206,440.581722 202.418278,437 198,437 C193.581722,437 190,440.581722 190,445 C190,449.418278 193.581722,453 198,453 Z M198,301 C202.418278,301 206,297.418278 206,293 C206,288.581722 202.418278,285 198,285 C193.581722,285 190,288.581722 190,293 C190,297.418278 193.581722,301 198,301 Z M198,605 C202.418278,605 206,601.418278 206,597 C206,592.581722 202.418278,589 198,589 C193.581722,589 190,592.581722 190,597 C190,601.418278 193.581722,605 198,605 Z M274,16 C278.418278,16 282,12.418278 282,8 C282,3.581722 278.418278,0 274,0 C269.581722,0 266,3.581722 266,8 C266,12.418278 269.581722,16 274,16 Z M274,320 C278.418278,320 282,316.418278 282,312 C282,307.581722 278.418278,304 274,304 C269.581722,304 266,307.581722 266,312 C266,316.418278 269.581722,320 274,320 Z M274,168 C278.418278,168 282,164.418278 282,160 C282,155.581722 278.418278,152 274,152 C269.581722,152 266,155.581722 266,160 C266,164.418278 269.581722,168 274,168 Z M274,472 C278.418278,472 282,468.418278 282,464 C282,459.581722 278.418278,456 274,456 C269.581722,456 266,459.581722 266,464 C266,468.418278 269.581722,472 274,472 Z M274,92 C278.418278,92 282,88.418278 282,84 C282,79.581722 278.418278,76 274,76 C269.581722,76 266,79.581722 266,84 C266,88.418278 269.581722,92 274,92 Z M274,396 C278.418278,396 282,392.418278 282,388 C282,383.581722 278.418278,380 274,380 C269.581722,380 266,383.581722 266,388 C266,392.418278 269.581722,396 274,396 Z M274,244 C278.418278,244 282,240.418278 282,236 C282,231.581722 278.418278,228 274,228 C269.581722,228 266,231.581722 266,236 C266,240.418278 269.581722,244 274,244 Z M274,548 C278.418278,548 282,544.418278 282,540 C282,535.581722 278.418278,532 274,532 C269.581722,532 266,535.581722 266,540 C266,544.418278 269.581722,548 274,548 Z M274,54 C278.418278,54 282,50.418278 282,46 C282,41.581722 278.418278,38 274,38 C269.581722,38 266,41.581722 266,46 C266,50.418278 269.581722,54 274,54 Z M274,358 C278.418278,358 282,354.418278 282,350 C282,345.581722 278.418278,342 274,342 C269.581722,342 266,345.581722 266,350 C266,354.418278 269.581722,358 274,358 Z M274,206 C278.418278,206 282,202.418278 282,198 C282,193.581722 278.418278,190 274,190 C269.581722,190 266,193.581722 266,198 C266,202.418278 269.581722,206 274,206 Z M274,510 C278.418278,510 282,506.418278 282,502 C282,497.581722 278.418278,494 274,494 C269.581722,494 266,497.581722 266,502 C266,506.418278 269.581722,510 274,510 Z M274,130 C278.418278,130 282,126.418278 282,122 C282,117.581722 278.418278,114 274,114 C269.581722,114 266,117.581722 266,122 C266,126.418278 269.581722,130 274,130 Z M274,434 C278.418278,434 282,430.418278 282,426 C282,421.581722 278.418278,418 274,418 C269.581722,418 266,421.581722 266,426 C266,430.418278 269.581722,434 274,434 Z M274,282 C278.418278,282 282,278.418278 282,274 C282,269.581722 278.418278,266 274,266 C269.581722,266 266,269.581722 266,274 C266,278.418278 269.581722,282 274,282 Z M274,586 C278.418278,586 282,582.418278 282,578 C282,573.581722 278.418278,570 274,570 C269.581722,570 266,573.581722 266,578 C266,582.418278 269.581722,586 274,586 Z M274,35 C278.418278,35 282,31.418278 282,27 C282,22.581722 278.418278,19 274,19 C269.581722,19 266,22.581722 266,27 C266,31.418278 269.581722,35 274,35 Z M274,339 C278.418278,339 282,335.418278 282,331 C282,326.581722 278.418278,323 274,323 C269.581722,323 266,326.581722 266,331 C266,335.418278 269.581722,339 274,339 Z M274,187 C278.418278,187 282,183.418278 282,179 C282,174.581722 278.418278,171 274,171 C269.581722,171 266,174.581722 266,179 C266,183.418278 269.581722,187 274,187 Z M274,491 C278.418278,491 282,487.418278 282,483 C282,478.581722 278.418278,475 274,475 C269.581722,475 266,478.581722 266,483 C266,487.418278 269.581722,491 274,491 Z M274,111 C278.418278,111 282,107.418278 282,103 C282,98.581722 278.418278,95 274,95 C269.581722,95 266,98.581722 266,103 C266,107.418278 269.581722,111 274,111 Z M274,415 C278.418278,415 282,411.418278 282,407 C282,402.581722 278.418278,399 274,399 C269.581722,399 266,402.581722 266,407 C266,411.418278 269.581722,415 274,415 Z M274,263 C278.418278,263 282,259.418278 282,255 C282,250.581722 278.418278,247 274,247 C269.581722,247 266,250.581722 266,255 C266,259.418278 269.581722,263 274,263 Z M274,567 C278.418278,567 282,563.418278 282,559 C282,554.581722 278.418278,551 274,551 C269.581722,551 266,554.581722 266,559 C266,563.418278 269.581722,567 274,567 Z M274,73 C278.418278,73 282,69.418278 282,65 C282,60.581722 278.418278,57 274,57 C269.581722,57 266,60.581722 266,65 C266,69.418278 269.581722,73 274,73 Z M274,377 C278.418278,377 282,373.418278 282,369 C282,364.581722 278.418278,361 274,361 C269.581722,361 266,364.581722 266,369 C266,373.418278 269.581722,377 274,377 Z M274,225 C278.418278,225 282,221.418278 282,217 C282,212.581722 278.418278,209 274,209 C269.581722,209 266,212.581722 266,217 C266,221.418278 269.581722,225 274,225 Z M274,529 C278.418278,529 282,525.418278 282,521 C282,516.581722 278.418278,513 274,513 C269.581722,513 266,516.581722 266,521 C266,525.418278 269.581722,529 274,529 Z M274,149 C278.418278,149 282,145.418278 282,141 C282,136.581722 278.418278,133 274,133 C269.581722,133 266,136.581722 266,141 C266,145.418278 269.581722,149 274,149 Z M274,453 C278.418278,453 282,449.418278 282,445 C282,440.581722 278.418278,437 274,437 C269.581722,437 266,440.581722 266,445 C266,449.418278 269.581722,453 274,453 Z M274,301 C278.418278,301 282,297.418278 282,293 C282,288.581722 278.418278,285 274,285 C269.581722,285 266,288.581722 266,293 C266,297.418278 269.581722,301 274,301 Z M274,605 C278.418278,605 282,601.418278 282,597 C282,592.581722 278.418278,589 274,589 C269.581722,589 266,592.581722 266,597 C266,601.418278 269.581722,605 274,605 Z M103,16 C107.418278,16 111,12.418278 111,8 C111,3.581722 107.418278,0 103,0 C98.581722,0 95,3.581722 95,8 C95,12.418278 98.581722,16 103,16 Z M103,320 C107.418278,320 111,316.418278 111,312 C111,307.581722 107.418278,304 103,304 C98.581722,304 95,307.581722 95,312 C95,316.418278 98.581722,320 103,320 Z M103,168 C107.418278,168 111,164.418278 111,160 C111,155.581722 107.418278,152 103,152 C98.581722,152 95,155.581722 95,160 C95,164.418278 98.581722,168 103,168 Z M103,472 C107.418278,472 111,468.418278 111,464 C111,459.581722 107.418278,456 103,456 C98.581722,456 95,459.581722 95,464 C95,468.418278 98.581722,472 103,472 Z M103,92 C107.418278,92 111,88.418278 111,84 C111,79.581722 107.418278,76 103,76 C98.581722,76 95,79.581722 95,84 C95,88.418278 98.581722,92 103,92 Z M103,396 C107.418278,396 111,392.418278 111,388 C111,383.581722 107.418278,380 103,380 C98.581722,380 95,383.581722 95,388 C95,392.418278 98.581722,396 103,396 Z M103,244 C107.418278,244 111,240.418278 111,236 C111,231.581722 107.418278,228 103,228 C98.581722,228 95,231.581722 95,236 C95,240.418278 98.581722,244 103,244 Z M103,548 C107.418278,548 111,544.418278 111,540 C111,535.581722 107.418278,532 103,532 C98.581722,532 95,535.581722 95,540 C95,544.418278 98.581722,548 103,548 Z M103,54 C107.418278,54 111,50.418278 111,46 C111,41.581722 107.418278,38 103,38 C98.581722,38 95,41.581722 95,46 C95,50.418278 98.581722,54 103,54 Z M103,358 C107.418278,358 111,354.418278 111,350 C111,345.581722 107.418278,342 103,342 C98.581722,342 95,345.581722 95,350 C95,354.418278 98.581722,358 103,358 Z M103,206 C107.418278,206 111,202.418278 111,198 C111,193.581722 107.418278,190 103,190 C98.581722,190 95,193.581722 95,198 C95,202.418278 98.581722,206 103,206 Z M103,510 C107.418278,510 111,506.418278 111,502 C111,497.581722 107.418278,494 103,494 C98.581722,494 95,497.581722 95,502 C95,506.418278 98.581722,510 103,510 Z M103,130 C107.418278,130 111,126.418278 111,122 C111,117.581722 107.418278,114 103,114 C98.581722,114 95,117.581722 95,122 C95,126.418278 98.581722,130 103,130 Z M103,434 C107.418278,434 111,430.418278 111,426 C111,421.581722 107.418278,418 103,418 C98.581722,418 95,421.581722 95,426 C95,430.418278 98.581722,434 103,434 Z M103,282 C107.418278,282 111,278.418278 111,274 C111,269.581722 107.418278,266 103,266 C98.581722,266 95,269.581722 95,274 C95,278.418278 98.581722,282 103,282 Z M103,586 C107.418278,586 111,582.418278 111,578 C111,573.581722 107.418278,570 103,570 C98.581722,570 95,573.581722 95,578 C95,582.418278 98.581722,586 103,586 Z M103,35 C107.418278,35 111,31.418278 111,27 C111,22.581722 107.418278,19 103,19 C98.581722,19 95,22.581722 95,27 C95,31.418278 98.581722,35 103,35 Z M103,339 C107.418278,339 111,335.418278 111,331 C111,326.581722 107.418278,323 103,323 C98.581722,323 95,326.581722 95,331 C95,335.418278 98.581722,339 103,339 Z M103,187 C107.418278,187 111,183.418278 111,179 C111,174.581722 107.418278,171 103,171 C98.581722,171 95,174.581722 95,179 C95,183.418278 98.581722,187 103,187 Z M103,491 C107.418278,491 111,487.418278 111,483 C111,478.581722 107.418278,475 103,475 C98.581722,475 95,478.581722 95,483 C95,487.418278 98.581722,491 103,491 Z M103,111 C107.418278,111 111,107.418278 111,103 C111,98.581722 107.418278,95 103,95 C98.581722,95 95,98.581722 95,103 C95,107.418278 98.581722,111 103,111 Z M103,415 C107.418278,415 111,411.418278 111,407 C111,402.581722 107.418278,399 103,399 C98.581722,399 95,402.581722 95,407 C95,411.418278 98.581722,415 103,415 Z M103,263 C107.418278,263 111,259.418278 111,255 C111,250.581722 107.418278,247 103,247 C98.581722,247 95,250.581722 95,255 C95,259.418278 98.581722,263 103,263 Z M103,567 C107.418278,567 111,563.418278 111,559 C111,554.581722 107.418278,551 103,551 C98.581722,551 95,554.581722 95,559 C95,563.418278 98.581722,567 103,567 Z M103,73 C107.418278,73 111,69.418278 111,65 C111,60.581722 107.418278,57 103,57 C98.581722,57 95,60.581722 95,65 C95,69.418278 98.581722,73 103,73 Z M103,377 C107.418278,377 111,373.418278 111,369 C111,364.581722 107.418278,361 103,361 C98.581722,361 95,364.581722 95,369 C95,373.418278 98.581722,377 103,377 Z M103,225 C107.418278,225 111,221.418278 111,217 C111,212.581722 107.418278,209 103,209 C98.581722,209 95,212.581722 95,217 C95,221.418278 98.581722,225 103,225 Z M103,529 C107.418278,529 111,525.418278 111,521 C111,516.581722 107.418278,513 103,513 C98.581722,513 95,516.581722 95,521 C95,525.418278 98.581722,529 103,529 Z M103,149 C107.418278,149 111,145.418278 111,141 C111,136.581722 107.418278,133 103,133 C98.581722,133 95,136.581722 95,141 C95,145.418278 98.581722,149 103,149 Z M103,453 C107.418278,453 111,449.418278 111,445 C111,440.581722 107.418278,437 103,437 C98.581722,437 95,440.581722 95,445 C95,449.418278 98.581722,453 103,453 Z M103,301 C107.418278,301 111,297.418278 111,293 C111,288.581722 107.418278,285 103,285 C98.581722,285 95,288.581722 95,293 C95,297.418278 98.581722,301 103,301 Z M103,605 C107.418278,605 111,601.418278 111,597 C111,592.581722 107.418278,589 103,589 C98.581722,589 95,592.581722 95,597 C95,601.418278 98.581722,605 103,605 Z M217,16 C221.418278,16 225,12.418278 225,8 C225,3.581722 221.418278,0 217,0 C212.581722,0 209,3.581722 209,8 C209,12.418278 212.581722,16 217,16 Z M217,320 C221.418278,320 225,316.418278 225,312 C225,307.581722 221.418278,304 217,304 C212.581722,304 209,307.581722 209,312 C209,316.418278 212.581722,320 217,320 Z M217,168 C221.418278,168 225,164.418278 225,160 C225,155.581722 221.418278,152 217,152 C212.581722,152 209,155.581722 209,160 C209,164.418278 212.581722,168 217,168 Z M217,472 C221.418278,472 225,468.418278 225,464 C225,459.581722 221.418278,456 217,456 C212.581722,456 209,459.581722 209,464 C209,468.418278 212.581722,472 217,472 Z M217,92 C221.418278,92 225,88.418278 225,84 C225,79.581722 221.418278,76 217,76 C212.581722,76 209,79.581722 209,84 C209,88.418278 212.581722,92 217,92 Z M217,396 C221.418278,396 225,392.418278 225,388 C225,383.581722 221.418278,380 217,380 C212.581722,380 209,383.581722 209,388 C209,392.418278 212.581722,396 217,396 Z M217,244 C221.418278,244 225,240.418278 225,236 C225,231.581722 221.418278,228 217,228 C212.581722,228 209,231.581722 209,236 C209,240.418278 212.581722,244 217,244 Z M217,548 C221.418278,548 225,544.418278 225,540 C225,535.581722 221.418278,532 217,532 C212.581722,532 209,535.581722 209,540 C209,544.418278 212.581722,548 217,548 Z M217,54 C221.418278,54 225,50.418278 225,46 C225,41.581722 221.418278,38 217,38 C212.581722,38 209,41.581722 209,46 C209,50.418278 212.581722,54 217,54 Z M217,358 C221.418278,358 225,354.418278 225,350 C225,345.581722 221.418278,342 217,342 C212.581722,342 209,345.581722 209,350 C209,354.418278 212.581722,358 217,358 Z M217,206 C221.418278,206 225,202.418278 225,198 C225,193.581722 221.418278,190 217,190 C212.581722,190 209,193.581722 209,198 C209,202.418278 212.581722,206 217,206 Z M217,510 C221.418278,510 225,506.418278 225,502 C225,497.581722 221.418278,494 217,494 C212.581722,494 209,497.581722 209,502 C209,506.418278 212.581722,510 217,510 Z M217,130 C221.418278,130 225,126.418278 225,122 C225,117.581722 221.418278,114 217,114 C212.581722,114 209,117.581722 209,122 C209,126.418278 212.581722,130 217,130 Z M217,434 C221.418278,434 225,430.418278 225,426 C225,421.581722 221.418278,418 217,418 C212.581722,418 209,421.581722 209,426 C209,430.418278 212.581722,434 217,434 Z M217,282 C221.418278,282 225,278.418278 225,274 C225,269.581722 221.418278,266 217,266 C212.581722,266 209,269.581722 209,274 C209,278.418278 212.581722,282 217,282 Z M217,586 C221.418278,586 225,582.418278 225,578 C225,573.581722 221.418278,570 217,570 C212.581722,570 209,573.581722 209,578 C209,582.418278 212.581722,586 217,586 Z M217,35 C221.418278,35 225,31.418278 225,27 C225,22.581722 221.418278,19 217,19 C212.581722,19 209,22.581722 209,27 C209,31.418278 212.581722,35 217,35 Z M217,339 C221.418278,339 225,335.418278 225,331 C225,326.581722 221.418278,323 217,323 C212.581722,323 209,326.581722 209,331 C209,335.418278 212.581722,339 217,339 Z M217,187 C221.418278,187 225,183.418278 225,179 C225,174.581722 221.418278,171 217,171 C212.581722,171 209,174.581722 209,179 C209,183.418278 212.581722,187 217,187 Z M217,491 C221.418278,491 225,487.418278 225,483 C225,478.581722 221.418278,475 217,475 C212.581722,475 209,478.581722 209,483 C209,487.418278 212.581722,491 217,491 Z M217,111 C221.418278,111 225,107.418278 225,103 C225,98.581722 221.418278,95 217,95 C212.581722,95 209,98.581722 209,103 C209,107.418278 212.581722,111 217,111 Z M217,415 C221.418278,415 225,411.418278 225,407 C225,402.581722 221.418278,399 217,399 C212.581722,399 209,402.581722 209,407 C209,411.418278 212.581722,415 217,415 Z M217,263 C221.418278,263 225,259.418278 225,255 C225,250.581722 221.418278,247 217,247 C212.581722,247 209,250.581722 209,255 C209,259.418278 212.581722,263 217,263 Z M217,567 C221.418278,567 225,563.418278 225,559 C225,554.581722 221.418278,551 217,551 C212.581722,551 209,554.581722 209,559 C209,563.418278 212.581722,567 217,567 Z M217,73 C221.418278,73 225,69.418278 225,65 C225,60.581722 221.418278,57 217,57 C212.581722,57 209,60.581722 209,65 C209,69.418278 212.581722,73 217,73 Z M217,377 C221.418278,377 225,373.418278 225,369 C225,364.581722 221.418278,361 217,361 C212.581722,361 209,364.581722 209,369 C209,373.418278 212.581722,377 217,377 Z M217,225 C221.418278,225 225,221.418278 225,217 C225,212.581722 221.418278,209 217,209 C212.581722,209 209,212.581722 209,217 C209,221.418278 212.581722,225 217,225 Z M217,529 C221.418278,529 225,525.418278 225,521 C225,516.581722 221.418278,513 217,513 C212.581722,513 209,516.581722 209,521 C209,525.418278 212.581722,529 217,529 Z M217,149 C221.418278,149 225,145.418278 225,141 C225,136.581722 221.418278,133 217,133 C212.581722,133 209,136.581722 209,141 C209,145.418278 212.581722,149 217,149 Z M217,453 C221.418278,453 225,449.418278 225,445 C225,440.581722 221.418278,437 217,437 C212.581722,437 209,440.581722 209,445 C209,449.418278 212.581722,453 217,453 Z M217,301 C221.418278,301 225,297.418278 225,293 C225,288.581722 221.418278,285 217,285 C212.581722,285 209,288.581722 209,293 C209,297.418278 212.581722,301 217,301 Z M217,605 C221.418278,605 225,601.418278 225,597 C225,592.581722 221.418278,589 217,589 C212.581722,589 209,592.581722 209,597 C209,601.418278 212.581722,605 217,605 Z M293,16 C297.418278,16 301,12.418278 301,8 C301,3.581722 297.418278,0 293,0 C288.581722,0 285,3.581722 285,8 C285,12.418278 288.581722,16 293,16 Z M293,320 C297.418278,320 301,316.418278 301,312 C301,307.581722 297.418278,304 293,304 C288.581722,304 285,307.581722 285,312 C285,316.418278 288.581722,320 293,320 Z M293,168 C297.418278,168 301,164.418278 301,160 C301,155.581722 297.418278,152 293,152 C288.581722,152 285,155.581722 285,160 C285,164.418278 288.581722,168 293,168 Z M293,472 C297.418278,472 301,468.418278 301,464 C301,459.581722 297.418278,456 293,456 C288.581722,456 285,459.581722 285,464 C285,468.418278 288.581722,472 293,472 Z M293,92 C297.418278,92 301,88.418278 301,84 C301,79.581722 297.418278,76 293,76 C288.581722,76 285,79.581722 285,84 C285,88.418278 288.581722,92 293,92 Z M293,396 C297.418278,396 301,392.418278 301,388 C301,383.581722 297.418278,380 293,380 C288.581722,380 285,383.581722 285,388 C285,392.418278 288.581722,396 293,396 Z M293,244 C297.418278,244 301,240.418278 301,236 C301,231.581722 297.418278,228 293,228 C288.581722,228 285,231.581722 285,236 C285,240.418278 288.581722,244 293,244 Z M293,548 C297.418278,548 301,544.418278 301,540 C301,535.581722 297.418278,532 293,532 C288.581722,532 285,535.581722 285,540 C285,544.418278 288.581722,548 293,548 Z M293,54 C297.418278,54 301,50.418278 301,46 C301,41.581722 297.418278,38 293,38 C288.581722,38 285,41.581722 285,46 C285,50.418278 288.581722,54 293,54 Z M293,358 C297.418278,358 301,354.418278 301,350 C301,345.581722 297.418278,342 293,342 C288.581722,342 285,345.581722 285,350 C285,354.418278 288.581722,358 293,358 Z M293,206 C297.418278,206 301,202.418278 301,198 C301,193.581722 297.418278,190 293,190 C288.581722,190 285,193.581722 285,198 C285,202.418278 288.581722,206 293,206 Z M293,510 C297.418278,510 301,506.418278 301,502 C301,497.581722 297.418278,494 293,494 C288.581722,494 285,497.581722 285,502 C285,506.418278 288.581722,510 293,510 Z M293,130 C297.418278,130 301,126.418278 301,122 C301,117.581722 297.418278,114 293,114 C288.581722,114 285,117.581722 285,122 C285,126.418278 288.581722,130 293,130 Z M293,434 C297.418278,434 301,430.418278 301,426 C301,421.581722 297.418278,418 293,418 C288.581722,418 285,421.581722 285,426 C285,430.418278 288.581722,434 293,434 Z M293,282 C297.418278,282 301,278.418278 301,274 C301,269.581722 297.418278,266 293,266 C288.581722,266 285,269.581722 285,274 C285,278.418278 288.581722,282 293,282 Z M293,586 C297.418278,586 301,582.418278 301,578 C301,573.581722 297.418278,570 293,570 C288.581722,570 285,573.581722 285,578 C285,582.418278 288.581722,586 293,586 Z M293,35 C297.418278,35 301,31.418278 301,27 C301,22.581722 297.418278,19 293,19 C288.581722,19 285,22.581722 285,27 C285,31.418278 288.581722,35 293,35 Z M293,339 C297.418278,339 301,335.418278 301,331 C301,326.581722 297.418278,323 293,323 C288.581722,323 285,326.581722 285,331 C285,335.418278 288.581722,339 293,339 Z M293,187 C297.418278,187 301,183.418278 301,179 C301,174.581722 297.418278,171 293,171 C288.581722,171 285,174.581722 285,179 C285,183.418278 288.581722,187 293,187 Z M293,491 C297.418278,491 301,487.418278 301,483 C301,478.581722 297.418278,475 293,475 C288.581722,475 285,478.581722 285,483 C285,487.418278 288.581722,491 293,491 Z M293,111 C297.418278,111 301,107.418278 301,103 C301,98.581722 297.418278,95 293,95 C288.581722,95 285,98.581722 285,103 C285,107.418278 288.581722,111 293,111 Z M293,415 C297.418278,415 301,411.418278 301,407 C301,402.581722 297.418278,399 293,399 C288.581722,399 285,402.581722 285,407 C285,411.418278 288.581722,415 293,415 Z M293,263 C297.418278,263 301,259.418278 301,255 C301,250.581722 297.418278,247 293,247 C288.581722,247 285,250.581722 285,255 C285,259.418278 288.581722,263 293,263 Z M293,567 C297.418278,567 301,563.418278 301,559 C301,554.581722 297.418278,551 293,551 C288.581722,551 285,554.581722 285,559 C285,563.418278 288.581722,567 293,567 Z M293,73 C297.418278,73 301,69.418278 301,65 C301,60.581722 297.418278,57 293,57 C288.581722,57 285,60.581722 285,65 C285,69.418278 288.581722,73 293,73 Z M293,377 C297.418278,377 301,373.418278 301,369 C301,364.581722 297.418278,361 293,361 C288.581722,361 285,364.581722 285,369 C285,373.418278 288.581722,377 293,377 Z M293,225 C297.418278,225 301,221.418278 301,217 C301,212.581722 297.418278,209 293,209 C288.581722,209 285,212.581722 285,217 C285,221.418278 288.581722,225 293,225 Z M293,529 C297.418278,529 301,525.418278 301,521 C301,516.581722 297.418278,513 293,513 C288.581722,513 285,516.581722 285,521 C285,525.418278 288.581722,529 293,529 Z M293,149 C297.418278,149 301,145.418278 301,141 C301,136.581722 297.418278,133 293,133 C288.581722,133 285,136.581722 285,141 C285,145.418278 288.581722,149 293,149 Z M293,453 C297.418278,453 301,449.418278 301,445 C301,440.581722 297.418278,437 293,437 C288.581722,437 285,440.581722 285,445 C285,449.418278 288.581722,453 293,453 Z M293,301 C297.418278,301 301,297.418278 301,293 C301,288.581722 297.418278,285 293,285 C288.581722,285 285,288.581722 285,293 C285,297.418278 288.581722,301 293,301 Z M293,605 C297.418278,605 301,601.418278 301,597 C301,592.581722 297.418278,589 293,589 C288.581722,589 285,592.581722 285,597 C285,601.418278 288.581722,605 293,605 Z" id="Combined-Shape"></path>
        </g>
    </g>
</svg>